<svg xmlns="http://www.w3.org/2000/svg" width="93.547" height="91.208" viewBox="0 0 93.547 91.208">
  <g id="vlpa" transform="translate(0 0)">
    <g id="vlpb" transform="translate(0 0)">
      <g id="vlpc">
        <g id="vlpd">
          <path id="Path_428" data-name="Path 428" d="M16.566,0H76.982A16.552,16.552,0,0,1,93.547,16.566V74.643A16.552,16.552,0,0,1,76.982,91.209H16.566A16.552,16.552,0,0,1,0,74.643V16.566A16.552,16.552,0,0,1,16.566,0Z" fill="#00005b"/>
        </g>
      </g>
    </g>
    <g id="vlpe" transform="translate(11.573 23.465)">
      <g id="vlpf">
        <path id="Path_429" data-name="Path 429" d="M55.692,91.3h-14.5l-2.962,9.2a.682.682,0,0,1-.741.546H30.162c-.429,0-.546-.234-.429-.7L42.284,64.371c.117-.39.234-.741.39-1.208a13.615,13.615,0,0,0,.234-2.534.386.386,0,0,1,.312-.429h10.1c.273,0,.468.117.507.312l14.227,39.758c.117.429,0,.624-.39.624H59.512a.588.588,0,0,1-.624-.429l-3.2-9.355ZM43.453,83.548h9.9c-.234-.819-.546-1.793-.9-2.806-.351-1.052-.7-2.183-1.052-3.352-.39-1.208-.741-2.378-1.13-3.586s-.741-2.339-1.052-3.469c-.312-1.091-.585-2.1-.858-3.04h-.078a47.858,47.858,0,0,1-1.325,5.028c-.585,1.871-1.169,3.82-1.793,5.769-.507,1.988-1.13,3.82-1.715,5.457Z" transform="translate(-29.69 -60.2)" fill="#99f"/>
        <path id="Path_430" data-name="Path 430" d="M153.865,102.5H141.509a8.589,8.589,0,0,0,1.208,3.469,6.18,6.18,0,0,0,2.845,2.339,12.124,12.124,0,0,0,4.989.974,23.447,23.447,0,0,0,4.054-.429,14.638,14.638,0,0,0,3.469-.9c.195-.156.312-.078.312.312v5.964a1.956,1.956,0,0,1-.078.468.911.911,0,0,1-.273.273,16.675,16.675,0,0,1-3.9,1.169,26.331,26.331,0,0,1-5.535.468,18.472,18.472,0,0,1-7.484-1.364,13.124,13.124,0,0,1-4.911-3.7,14.3,14.3,0,0,1-2.689-5.106,20.193,20.193,0,0,1,.156-11.888,15.907,15.907,0,0,1,2.923-5.34,14.127,14.127,0,0,1,4.716-3.7,14.72,14.72,0,0,1,6.509-1.208,14.081,14.081,0,0,1,6.042,1.208,10.735,10.735,0,0,1,4.093,3.118,14.269,14.269,0,0,1,2.339,4.443,15.332,15.332,0,0,1,.741,4.755c0,.935-.039,1.754-.078,2.495-.078.741-.117,1.286-.156,1.637a.582.582,0,0,1-.546.507c-.234,0-.663.039-1.286.078a18.452,18.452,0,0,1-2.261.117c-.9,0-1.832-.156-2.845-.156Zm-12.356-5.691h8.224c1.013,0,1.754,0,2.222-.039a1.906,1.906,0,0,0,.9-.312v-.39a4.473,4.473,0,0,0-.234-1.442,5.159,5.159,0,0,0-5.067-3.586A5.488,5.488,0,0,0,142.367,94,8.079,8.079,0,0,0,141.509,96.808Z" transform="translate(-92.549 -74.902)" fill="#99f"/>
      </g>
    </g>
  </g>
</svg>
