<svg xmlns="http://www.w3.org/2000/svg" width="93.547" height="91.208" viewBox="0 0 93.547 91.208">
  <g id="Layer_2_1_" transform="translate(0 0)">
    <g id="Surfaces" transform="translate(0 0)">
      <g id="UI_UX_Surface">
        <g id="Outline_no_shadow">
          <path id="Path_425" data-name="Path 425" d="M16.566,0H76.982A16.552,16.552,0,0,1,93.547,16.566V74.643A16.552,16.552,0,0,1,76.982,91.209H16.566A16.552,16.552,0,0,1,0,74.643V16.566A16.552,16.552,0,0,1,16.566,0Z" fill="#470137"/>
        </g>
      </g>
    </g>
    <g id="Outlined_Mnemonics_Logos" transform="translate(13.627 19.99)">
      <g id="Xd">
        <path id="Path_426" data-name="Path 426" d="M70.524,60.585,58.831,79.879,71.3,100.342a.671.671,0,0,1,.078.468c-.039.156-.195.039-.429.078H62.027c-.624,0-1.052-.039-1.325-.429-.819-1.637-1.676-3.235-2.495-4.872-.819-1.6-1.715-3.235-2.651-4.911s-1.871-3.352-2.806-5.067h-.078c-.819,1.676-1.715,3.352-2.612,5.028s-1.793,3.352-2.651,4.989c-.9,1.637-1.793,3.313-2.689,4.911-.156.39-.468.429-.9.429H35.249c-.156,0-.273.078-.273-.117a.541.541,0,0,1,.078-.429L47.176,80.541l-11.81-20c-.117-.156-.156-.312-.078-.39a.452.452,0,0,1,.39-.156h8.848a2.3,2.3,0,0,1,.546.078,1.106,1.106,0,0,1,.39.351c.741,1.676,1.6,3.352,2.495,5.028.935,1.676,1.832,3.313,2.806,4.95.935,1.637,1.793,3.274,2.612,4.95h.078c.819-1.715,1.676-3.391,2.534-5.028s1.754-3.274,2.651-4.911,1.754-3.313,2.612-4.911a.663.663,0,0,1,.234-.39.743.743,0,0,1,.507-.078h8.224a.359.359,0,0,1,.429.273c.039.039-.039.195-.117.273Z" transform="translate(-34.961 -56.603)" fill="#ff61f6"/>
        <path id="Path_427" data-name="Path 427" d="M146.707,96.388a19.378,19.378,0,0,1-8.38-1.754,13.589,13.589,0,0,1-5.886-5.3,16.865,16.865,0,0,1-2.144-8.887,16.008,16.008,0,0,1,2.144-8.224,16.186,16.186,0,0,1,6.2-6.042,19.938,19.938,0,0,1,9.861-2.261,6.96,6.96,0,0,1,.819.039c.351.039.741.039,1.208.078V51.719c0-.273.117-.429.39-.429h7.913a.35.35,0,0,1,.39.273V88.748c0,.7.039,1.481.078,2.339.078.819.117,1.6.156,2.261a.633.633,0,0,1-.39.624,29.768,29.768,0,0,1-6.353,1.871A34.381,34.381,0,0,1,146.707,96.388Zm3.82-7.8V71.442a9.969,9.969,0,0,0-1.052-.195c-.429-.039-.857-.078-1.286-.078a9.609,9.609,0,0,0-4.4,1.013,8.738,8.738,0,0,0-3.313,2.884,8.64,8.64,0,0,0-1.286,4.95,10.862,10.862,0,0,0,.663,4.015A7.618,7.618,0,0,0,141.6,86.8a6.734,6.734,0,0,0,2.65,1.559,10.2,10.2,0,0,0,3.235.507c.585,0,1.13-.039,1.637-.078A3.409,3.409,0,0,0,150.527,88.592Z" transform="translate(-93.136 -51.284)" fill="#ff61f6"/>
      </g>
    </g>
  </g>
</svg>
