<svg xmlns="http://www.w3.org/2000/svg" width="99.035" height="26.093" viewBox="0 0 99.035 26.093">
  <g id="Adobe_Corporate_logo" transform="translate(0 0)" opacity="0.396">
    <g id="Group_95" data-name="Group 95" transform="translate(0 0)">
      <path id="Path_343" data-name="Path 343" d="M10.911,0H0V26.093Zm0,0"/>
      <path id="Path_344" data-name="Path 344" d="M10.215,0h10.9V26.093Zm0,0" transform="translate(8.373)"/>
      <path id="Path_345" data-name="Path 345" d="M10.254,5.285,17.2,21.761H12.642l-2.076-5.246H5.484Zm0,0" transform="translate(4.495 4.332)"/>
    </g>
    <g id="Group_96" data-name="Group 96" transform="translate(38.167 4.674)">
      <path id="Path_346" data-name="Path 346" d="M30.092,13.941l1.287,3.689a.214.214,0,0,0,.22.135h2.474c.135,0,.156-.064.135-.2L29.1,3.371c-.021-.114-.043-.135-.156-.135H25.87c-.085,0-.135.064-.135.156a3.274,3.274,0,0,1-.2,1.194L20.98,17.545c-.021.156.028.22.156.22h2.211a.225.225,0,0,0,.249-.178l1.215-3.646Zm-4.578-2.41c.668-2.019,1.55-4.606,1.9-6.084h.021c.441,1.55,1.478,4.62,1.948,6.084Zm0,0" transform="translate(-20.975 -2.021)"/>
      <path id="Path_347" data-name="Path 347" d="M34.406,18.533a10.482,10.482,0,0,0,4.18-.86.173.173,0,0,0,.135-.2c-.043-.4-.092-.974-.092-1.414V2.7c0-.085,0-.128-.107-.128h-2.41c-.092,0-.135.043-.135.156V7.253a7.924,7.924,0,0,0-.952-.064c-3.888,0-6.276,2.566-6.276,5.772C28.748,16.678,31.2,18.533,34.406,18.533Zm1.571-2.474a4.234,4.234,0,0,1-1.287.178c-1.763,0-3.206-1-3.206-3.412a3.243,3.243,0,0,1,3.455-3.4,2.873,2.873,0,0,1,1.038.156Zm0,0" transform="translate(-14.603 -2.568)"/>
      <path id="Path_348" data-name="Path 348" d="M40.874,5.108c-3.319,0-5.374,2.545-5.374,5.686,0,2.808,1.635,5.658,5.324,5.658,3.12,0,5.31-2.3,5.31-5.729,0-3.028-1.855-5.615-5.26-5.615Zm-.135,2.232c1.877,0,2.673,1.614,2.673,3.454,0,2.275-1.173,3.4-2.538,3.4-1.685,0-2.68-1.414-2.68-3.454,0-2.1,1.059-3.4,2.545-3.4Zm0,0" transform="translate(-9.069 -0.487)"/>
      <path id="Path_349" data-name="Path 349" d="M42.783,2.568a.139.139,0,0,0-.156.156V17.851a.233.233,0,0,0,.156.2,11.183,11.183,0,0,0,3.312.483c3.277,0,6.461-2.033,6.461-6.127A4.988,4.988,0,0,0,47.34,7.189a6.386,6.386,0,0,0-2.012.313L45.3,2.746c0-.156-.043-.178-.2-.178Zm7.051,10.108a3.343,3.343,0,0,1-3.49,3.6,3.508,3.508,0,0,1-1.016-.114V9.712a3.935,3.935,0,0,1,1.542-.249C48.619,9.463,49.835,10.572,49.835,12.676Zm0,0" transform="translate(-3.227 -2.568)"/>
      <path id="Path_350" data-name="Path 350" d="M56.263,11.391a15.791,15.791,0,0,0,2.275-.092c.114-.021.156-.064.178-.156a6.714,6.714,0,0,0,.092-1.365,4.4,4.4,0,0,0-4.535-4.67c-3.341,0-5.2,2.722-5.2,5.793,0,2.722,1.436,5.551,5.459,5.551a7.342,7.342,0,0,0,3.319-.64.236.236,0,0,0,.128-.242V13.729c0-.107-.064-.128-.128-.085a6.944,6.944,0,0,1-2.744.533c-2.253,0-3.277-1.244-3.341-2.786Zm-4.492-1.9a2.415,2.415,0,0,1,2.388-2.253,2.044,2.044,0,0,1,2.125,2.054v.178a11.293,11.293,0,0,1-1.215.021Zm0,0" transform="translate(2.059 -0.487)"/>
    </g>
  </g>
</svg>
