<svg xmlns="http://www.w3.org/2000/svg" width="48.047" height="39.092" viewBox="0 0 48.047 39.092">
  <path id="blender-1" d="M48.406,69.888A14.345,14.345,0,0,0,46.363,64.3a15.609,15.609,0,0,0-3.572-3.984l0,0L27.732,48.741l-.034-.027a3.144,3.144,0,0,0-1.908-.595,3.473,3.473,0,0,0-1.983.6,2.01,2.01,0,0,0-.949,1.538,1.818,1.818,0,0,0,.73,1.47c.969.765,1.937,1.546,2.905,2.329.94.76,1.909,1.542,2.872,2.3l-18.449-.013c-2.11,0-3.546.991-3.842,2.649a2.659,2.659,0,0,0,.612,2.137,2.841,2.841,0,0,0,2.222,1.006h1.406c1.943,0,3.894,0,5.843-.01l1.859,0L2.272,74.511l-.066.049a4.235,4.235,0,0,0-1.68,2.757,2.73,2.73,0,0,0,.529,2.074A2.878,2.878,0,0,0,3.4,80.448a4.435,4.435,0,0,0,2.758-1.026l9.042-7.4a12.016,12.016,0,0,0-.08,1.276,12.052,12.052,0,0,0,.515,2.824,14.824,14.824,0,0,0,3.2,5.544,16.532,16.532,0,0,0,5.595,4.017,17.975,17.975,0,0,0,7.319,1.527h.024a18.016,18.016,0,0,0,7.342-1.553A16.63,16.63,0,0,0,44.7,81.624a14.938,14.938,0,0,0,3.2-5.554,13.946,13.946,0,0,0,.5-6.183ZM31.934,79.662c-5.655,0-10.24-4.1-10.24-9.162s4.586-9.162,10.24-9.162,10.24,4.1,10.24,9.162S37.589,79.662,31.934,79.662Zm5.905-9.968a5.112,5.112,0,0,1-1.579,3.951,6.317,6.317,0,0,1-8.67,0,5.113,5.113,0,0,1-1.578-3.95,5.208,5.208,0,0,1,1.875-3.679,6.342,6.342,0,0,1,8.076,0A5.209,5.209,0,0,1,37.839,69.695Z" transform="translate(-0.499 -48.119)" opacity="0.4"/>
</svg>
