<svg xmlns="http://www.w3.org/2000/svg" width="48.904" height="48.903" viewBox="0 0 48.904 48.903">
  <g id="Group_21" data-name="Group 21" transform="translate(0)" opacity="0.396">
    <g id="logo-javascript" transform="translate(0 0)">
      <path id="Path_126" data-name="Path 126" d="M0,0H48.9V48.9H0Z" fill="#9d9d9d"/>
      <path id="Path_127" data-name="Path 127" d="M308.548,492.292c-.358-2.231-1.813-4.1-6.122-5.853-1.5-.688-3.166-1.181-3.663-2.315a2.526,2.526,0,0,1-.088-1.432c.321-1.3,1.869-1.7,3.1-1.33a3.406,3.406,0,0,1,1.99,1.845c2.111-1.367,2.106-1.357,3.579-2.3a9.123,9.123,0,0,0-1.181-1.581c-1.269-1.418-3-2.148-5.764-2.092-.479.06-.962.125-1.441.186a6.537,6.537,0,0,0-3.468,2.045,6.4,6.4,0,0,0,1.162,9.116c2.775,2.083,6.852,2.557,7.373,4.5.507,2.385-1.753,3.156-4,2.882a5.24,5.24,0,0,1-3.57-2.715c-1.832,1.06-1.832,1.06-3.714,2.143a8.269,8.269,0,0,0,1.664,2.264c3.542,3.593,12.407,3.417,14-2.022A6.716,6.716,0,0,0,308.548,492.292Zm-18.316-14.764h-4.574c0,3.951-.019,7.875-.019,11.826,0,2.515.13,4.821-.279,5.527-.669,1.39-2.4,1.218-3.194.948a3.925,3.925,0,0,1-1.687-1.752,2.349,2.349,0,0,0-.26-.418q-1.862,1.136-3.719,2.278a7.349,7.349,0,0,0,2.7,3.087,8.88,8.88,0,0,0,6.536.8,5.775,5.775,0,0,0,3.691-2.891c1.041-1.92.818-4.244.809-6.815C290.255,485.928,290.232,481.735,290.232,477.528Z" transform="translate(-263.647 -455.052)"/>
    </g>
  </g>
</svg>
