<svg xmlns="http://www.w3.org/2000/svg" width="52.069" height="54.015" viewBox="0 0 52.069 54.015">
  <path id="laravel" d="M52.04,12.22a.861.861,0,0,1,.029.221V24.035a.847.847,0,0,1-.422.733l-9.657,5.6v11.1a.849.849,0,0,1-.419.733L21.413,53.9a.9.9,0,0,1-.147.061c-.019.006-.037.018-.057.023a.838.838,0,0,1-.43,0c-.023-.006-.044-.019-.066-.027a.868.868,0,0,1-.138-.057L.422,42.209A.848.848,0,0,1,0,41.476V6.693a.87.87,0,0,1,.029-.222C.036,6.447.05,6.425.059,6.4a.837.837,0,0,1,.053-.131A.79.79,0,0,1,.17,6.194a.861.861,0,0,1,.074-.1.82.82,0,0,1,.083-.063A.685.685,0,0,1,.419,5.96h0L10.5.113a.835.835,0,0,1,.839,0L21.414,5.96h0a1.03,1.03,0,0,1,.092.072.994.994,0,0,1,.082.063.986.986,0,0,1,.075.1.779.779,0,0,1,.057.075.886.886,0,0,1,.055.131c.008.024.023.046.029.072a.861.861,0,0,1,.029.221V28.418l8.4-4.872V12.439a.86.86,0,0,1,.029-.22c.007-.025.021-.048.029-.072a.958.958,0,0,1,.055-.131c.016-.027.039-.05.057-.075a.87.87,0,0,1,.075-.1.808.808,0,0,1,.082-.063.848.848,0,0,1,.092-.073h0L40.733,5.86a.834.834,0,0,1,.839,0l10.077,5.847a.929.929,0,0,1,.094.072c.026.021.057.04.081.063a.987.987,0,0,1,.075.1.638.638,0,0,1,.057.075.841.841,0,0,1,.055.131A.6.6,0,0,1,52.04,12.22ZM50.39,23.545V13.9L46.863,15.95l-4.872,2.827v9.641l8.4-4.872ZM40.312,40.986V31.339L35.52,34.1l-13.685,7.87v9.739ZM1.68,8.157v32.83L20.155,51.7V41.968l-9.652-5.5,0,0,0,0a37.816,37.816,0,0,0-.17-.131l0,0a.8.8,0,0,1-.069-.089.9.9,0,0,1-.063-.082v0a.676.676,0,0,1-.044-.106.629.629,0,0,1-.04-.1h0a.815.815,0,0,1-.017-.124.739.739,0,0,1-.013-.1v-22.7L5.207,10.2,1.68,8.158Zm9.239-6.334-8.4,4.87,8.394,4.87,8.4-4.871-8.4-4.869Zm4.367,30.4,4.871-2.826V8.157L16.629,10.2l-4.872,2.827V34.265l3.528-2.047ZM41.152,7.57l-8.4,4.87,8.4,4.87,8.394-4.871L41.152,7.57Zm-.84,11.206L35.44,15.95,31.913,13.9v9.641l4.871,2.826,3.528,2.047V18.777ZM20.994,40.5l12.314-7.084,6.156-3.54-8.389-4.867-9.659,5.6-8.8,5.107Z" transform="translate(0 0)" fill="#2a2c2b" fill-rule="evenodd" opacity="0.396"/>
</svg>
