<svg xmlns="http://www.w3.org/2000/svg" width="74.916" height="74.934" viewBox="0 0 74.916 74.934">
  <g id="Frame" transform="translate(0 0.005)">
    <g id="Group" transform="translate(0 -0.005)">
      <g id="Group-2" data-name="Group" transform="translate(0 9.789)">
        <g id="Group-3" data-name="Group">
          <path id="Vector" d="M10.615,14.9,6.32,22.256l-.614,3.527-3.252,3.1L0,27.425c.184-.182.429-.365.614-.547C9.019,18.729,7.117,3.162,6.688.426A1.927,1.927,0,0,1,6.626,0L9.019.365A40.8,40.8,0,0,1,10.615,14.9Z" transform="translate(52.766 2.634)" fill="#272343"/>
          <path id="Vector-2" data-name="Vector" d="M6.714.013S4.2,4.939,1.314,6.4s-.123.3-.123.3,1.1.669,1.227.426a24.533,24.533,0,0,1,2.7-1.642C5.3,5.3,7.266,3.723,7.266,3.6c.061-.122,1.1-2.007,1.1-2.007S8.186-.169,8,.013C7.757.2,6.714.013,6.714.013Z" transform="translate(40.101 31.93)" fill="#272343"/>
          <g id="Group-4" data-name="Group" transform="translate(38.701 28.531)">
            <path id="Vector-3" data-name="Vector" d="M1.671,11.8a1.886,1.886,0,0,1-1.1-1.338C-.047,8.4-.844,4.082,2.285.555A1.691,1.691,0,0,1,4.31.19L9.463,2.683a1.752,1.752,0,0,1,.92,1.824c-.92,4.621-4.908,6.628-6.933,7.358A2.255,2.255,0,0,1,1.671,11.8ZM3.7,2.318c-2.147,2.676-1.473,5.959-.982,7.54,1.534-.547,4.54-2.067,5.4-5.351Z" transform="translate(0 0)" fill="#272343"/>
          </g>
          <path id="Vector-4" data-name="Vector" d="M1.091,0S1.213,2.311.355,2.858c-.8.547,0,.365,0,.365s2.884.973,2.638.669.552-2.98.552-2.98Z" transform="translate(47.258 29.086)" fill="#272343"/>
          <path id="Vector-5" data-name="Vector" d="M24.757,3.059c-.245-.791-.429-1.459-.614-1.885A1.509,1.509,0,0,0,23.284.2,1.582,1.582,0,0,0,22,.08C19.357.992,9.418,4.823,4.141,12.363a25.625,25.625,0,0,0-4.05,9.364L.03,21.91a2.689,2.689,0,0,0,1.6,2.858l1.534.791-.859.791a1.967,1.967,0,0,0-.675,1.7,2.274,2.274,0,0,0,1.166,1.642l9.019,4.317a2.591,2.591,0,0,0,.982.243,2.082,2.082,0,0,0,1.043-.3,2.008,2.008,0,0,0,.982-1.581l.061-1.155,1.963.973a2.813,2.813,0,0,0,1.227.3,2.9,2.9,0,0,0,2.025-.851l.123-.122a25.1,25.1,0,0,0,5.031-8.878,24.367,24.367,0,0,0,1.043-5.108A41.9,41.9,0,0,0,24.757,3.059ZM23.1,21.971a20.725,20.725,0,0,1-1.166,2.919,13.67,13.67,0,0,1-.675,1.338l-1.1,1.824a25.525,25.525,0,0,1-1.6,2.007l-.061.061a.657.657,0,0,1-.736.122l-1.473-.73-5.583-2.736a1.012,1.012,0,0,0-1.35.426l-.123.182a.994.994,0,0,0,.429,1.338L12.67,30.18l-.061,1.763-8.59-4.2,1.288-1.155a1.012,1.012,0,0,0,1.35-.426l.123-.182a.994.994,0,0,0-.429-1.338L2.668,22.883a.7.7,0,0,1-.368-.669v-.061A22.518,22.518,0,0,1,5.982,13.64C11.136,6.343,19.419,3.3,22.241,2.451a4.592,4.592,0,0,0,.245.669C23.53,6.343,25.677,14.187,23.1,21.971Z" transform="translate(37.09 0)" fill="#272343"/>
          <path id="Vector-6" data-name="Vector" d="M6.626,3.284A3.313,3.313,0,1,1,3.313,0,3.3,3.3,0,0,1,6.626,3.284Z" transform="translate(50.619 10.356)" fill="#272343"/>
          <g id="Group-5" data-name="Group" transform="translate(48.572 8.715)">
            <path id="Vector-7" data-name="Vector" d="M10.146,3.527A5.062,5.062,0,0,0,7.508.547,5.561,5.561,0,0,0,4.869,0a1.054,1.054,0,0,0-.92,1.4,1.123,1.123,0,0,0,1.1.791h.123a2.788,2.788,0,0,1,1.534.426,2.757,2.757,0,0,1,1.227,1.4,2.615,2.615,0,0,1,.245,1.155,3.532,3.532,0,0,1-.307,1.338,3.223,3.223,0,0,1-1.718,1.52,3.236,3.236,0,0,1-2.27-.122A3.213,3.213,0,0,1,2.354,6.2a2.753,2.753,0,0,1-.123-1.216,1.063,1.063,0,0,0-.675-1.095,1.172,1.172,0,0,0-1.534.973A4.8,4.8,0,0,0,.268,6.932a5.269,5.269,0,0,0,2.638,2.98,5.188,5.188,0,0,0,2.27.547,5.3,5.3,0,0,0,1.657-.3A5.312,5.312,0,0,0,9.839,7.54,5.127,5.127,0,0,0,10.146,3.527Z" transform="translate(0)" fill="#272343"/>
          </g>
          <g id="Group-6" data-name="Group" transform="translate(30.818 11.651)">
            <path id="Vector-8" data-name="Vector" d="M8.266,11.962l-1.35-.608-5.645-2.8A2.231,2.231,0,0,1,.228,5.577,9.947,9.947,0,0,1,6.057.53a10.641,10.641,0,0,1,5.522-.3l1.6.365-.92,1.338a23.526,23.526,0,0,0-3.681,8.513Zm1.043-9.79A7.057,7.057,0,0,0,6.793,2.6,7.662,7.662,0,0,0,2.253,6.55v.061L6.67,8.739A24.881,24.881,0,0,1,9.431,2.172Z" transform="translate(0)" fill="#272343"/>
          </g>
          <g id="Group-7" data-name="Group" transform="translate(54.607 20.512)">
            <path id="Vector-9" data-name="Vector" d="M7.976,14.351a1.813,1.813,0,0,1-.982-.243L0,10.7,1.1,9.547A22.315,22.315,0,0,0,5.645,1.52L6.136,0,7.424,1.034a10.181,10.181,0,0,1,3.129,4.5,10.067,10.067,0,0,1-.491,7.662,2.4,2.4,0,0,1-1.288,1.155ZM3.5,10.033l4.418,2.128h.061A7.744,7.744,0,0,0,8.344,6.2,8.922,8.922,0,0,0,7.056,3.831,24.256,24.256,0,0,1,3.5,10.033Z" fill="#272343"/>
          </g>
          <g id="Group-8" data-name="Group" transform="translate(29.794 25.047)">
            <path id="Vector-10" data-name="Vector" d="M1.129,9.876a1.805,1.805,0,0,1-.552-.122,1.1,1.1,0,0,1-.429-1.52L4.565.572A1.12,1.12,0,0,1,6.1.146a1.1,1.1,0,0,1,.429,1.52L2.111,9.329A1.043,1.043,0,0,1,1.129,9.876Z" transform="translate(0 0)" fill="#272343"/>
          </g>
          <g id="Group-9" data-name="Group" transform="translate(30.698 35.49)">
            <path id="Vector-11" data-name="Vector" d="M1.085,6.365a1,1,0,0,1-.552-.182,1.081,1.081,0,0,1-.368-1.52L2.619.528A1.1,1.1,0,0,1,4.153.163a1.081,1.081,0,0,1,.368,1.52L2.066,5.818A1.182,1.182,0,0,1,1.085,6.365Z" transform="translate(0 0)" fill="#272343"/>
          </g>
          <g id="Group-10" data-name="Group" transform="translate(43.644 41.814)">
            <g id="Group-11" data-name="Group">
              <path id="Vector-12" data-name="Vector" d="M1.085,6.426a1,1,0,0,1-.552-.182,1.081,1.081,0,0,1-.368-1.52L2.741.528A1.1,1.1,0,0,1,4.275.163a1.081,1.081,0,0,1,.368,1.52l-2.577,4.2A1.182,1.182,0,0,1,1.085,6.426Z" transform="translate(0 0)" fill="#272343"/>
            </g>
          </g>
          <g id="Group-12" data-name="Group" transform="translate(50.901 34.777)">
            <path id="Vector-13" data-name="Vector" d="M1.129,9.876a1.805,1.805,0,0,1-.552-.122,1.1,1.1,0,0,1-.429-1.52L4.565.572A1.12,1.12,0,0,1,6.1.146a1.1,1.1,0,0,1,.429,1.52L2.111,9.329A1.355,1.355,0,0,1,1.129,9.876Z" transform="translate(0 0)" fill="#272343"/>
          </g>
          <path id="Vector-14" data-name="Vector" d="M30.617,2.189H1.1A1.095,1.095,0,1,1,1.1,0H30.617a1.1,1.1,0,0,1,1.1,1.095A1.136,1.136,0,0,1,30.617,2.189Z" transform="translate(0 62.956)" fill="#b5b7be"/>
          <path id="Vector-15" data-name="Vector" d="M1.1,2.189A1.095,1.095,0,1,1,1.1,0H9.142a1.095,1.095,0,1,1,0,2.189" transform="translate(36.752 62.409)" fill="#b5b7be"/>
          <path id="Vector-16" data-name="Vector" d="M16.566,2.189H1.1A1.095,1.095,0,1,1,1.1,0H16.566a1.095,1.095,0,1,1,0,2.189Z" transform="translate(55.834 62.956)" fill="#b5b7be"/>
          <path id="Vector-17" data-name="Vector" d="M18.284,10.7a1.1,1.1,0,0,1-1.1-1.095,7.486,7.486,0,0,0-14.971,0A1.1,1.1,0,0,1,1.1,10.7,1.1,1.1,0,0,1,0,9.608a9.695,9.695,0,0,1,19.389,0A1.1,1.1,0,0,1,18.284,10.7Z" transform="translate(39.759 53.591)" fill="#b5b7be"/>
          <g id="Group-13" data-name="Group" transform="translate(22.702 45.99)">
            <g id="Group-14" data-name="Group">
              <path id="Vector-18" data-name="Vector" d="M20.984,12.04a1.1,1.1,0,0,1-1.1-1.095,8.836,8.836,0,0,0-17.671,0A1.1,1.1,0,0,1,1.1,12.04,1.1,1.1,0,0,1,0,10.946a11.045,11.045,0,0,1,22.088,0A1.1,1.1,0,0,1,20.984,12.04Z" fill="#b5b7be"/>
            </g>
          </g>
          <g id="Group-15" data-name="Group" transform="translate(7.731 52.01)">
            <g id="Group-16" data-name="Group" transform="translate(0 0)">
              <path id="Vector-19" data-name="Vector" d="M1.1,12.04A1.1,1.1,0,0,1,0,10.946,11.027,11.027,0,0,1,11.044,0a10.862,10.862,0,0,1,5.522,1.459A1.1,1.1,0,0,1,17,2.98a1.12,1.12,0,0,1-1.534.426A8.718,8.718,0,0,0,11.044,2.25a8.838,8.838,0,0,0-8.835,8.756A1.084,1.084,0,0,1,1.1,12.04Z" fill="#b5b7be"/>
            </g>
          </g>
        </g>
        <path id="Vector-20" data-name="Vector" d="M3.865,7.662a1.095,1.095,0,1,1,0-2.189A1.642,1.642,0,1,0,2.209,3.831,1.1,1.1,0,0,1,1.1,4.925,1.1,1.1,0,0,1,0,3.831,3.832,3.832,0,0,1,3.865,0,3.832,3.832,0,0,1,7.731,3.831,3.871,3.871,0,0,1,3.865,7.662Z" transform="translate(55.834 45.99)" fill="#b5b7be"/>
        <path id="Vector-21" data-name="Vector" d="M14.357,7.115A7.179,7.179,0,1,1,7.179,0,7.147,7.147,0,0,1,14.357,7.115Z" transform="translate(13.13 4.762)" fill="#272343"/>
        <g id="Group-17" data-name="Group" transform="translate(17.302 6.708)">
          <g id="Group-18" data-name="Group">
            <path id="Vector-22" data-name="Vector" d="M3.375,4.5V2.189a2.735,2.735,0,0,1,1.35.608.371.371,0,0,0,.245.061.547.547,0,0,0,.552-.547A.859.859,0,0,0,5.4,1.946a3.125,3.125,0,0,0-2.025-.791V.365A.352.352,0,0,0,3.006,0a.418.418,0,0,0-.429.426v.73A2.374,2.374,0,0,0,.123,3.344C.123,4.8,1.411,5.23,2.577,5.534V8.148a3.6,3.6,0,0,1-1.718-.73C.736,7.358.675,7.3.552,7.3A.547.547,0,0,0,0,7.844a.859.859,0,0,0,.123.365,3.666,3.666,0,0,0,2.454.973v.73c0,.243.184.365.429.365a.352.352,0,0,0,.368-.365v-.73A2.357,2.357,0,0,0,5.89,6.871C5.829,5.29,4.54,4.865,3.375,4.5Zm-.859-.182c-.736-.182-1.288-.426-1.288-1.034S1.718,2.25,2.516,2.189Zm.859,3.831V5.777c.736.182,1.288.486,1.288,1.155C4.663,7.479,4.295,8.027,3.375,8.148Z" fill="#fff"/>
          </g>
        </g>
      </g>
      <path id="Vector-23" data-name="Vector" d="M4.188,8.285A4.259,4.259,0,0,1,1.242,7.069a4.05,4.05,0,0,1,0-5.838,4.137,4.137,0,0,1,5.89,0,4.05,4.05,0,0,1,0,5.838A4.007,4.007,0,0,1,4.188,8.285Zm0-5.412a1.255,1.255,0,0,0-.92.365,1.314,1.314,0,0,0,0,1.824,1.343,1.343,0,0,0,1.841,0,1.314,1.314,0,0,0,0-1.824A1.359,1.359,0,0,0,4.188,2.873Z" transform="translate(41.83)" fill="#2d334a" opacity="0.3"/>
      <path id="Vector-24" data-name="Vector" d="M4.172,1.581H3.559V.973A.965.965,0,0,0,2.577,0,.965.965,0,0,0,1.6.973v.608H.982a.973.973,0,1,0,0,1.946H1.6v.608a.965.965,0,0,0,.982.973.965.965,0,0,0,.982-.973V3.527h.614a.973.973,0,1,0,0-1.946Z" transform="translate(18.959 36.078)" fill="#2d334a" opacity="0.3"/>
      <path id="Vector-25" data-name="Vector" d="M6.074,2.311h-.92V1.4A1.382,1.382,0,0,0,3.743,0,1.382,1.382,0,0,0,2.332,1.4v.912h-.92a1.4,1.4,0,1,0,0,2.8h.92v.851a1.382,1.382,0,0,0,1.411,1.4,1.382,1.382,0,0,0,1.411-1.4V5.047h.92a1.369,1.369,0,1,0,0-2.736Z" transform="translate(67.431 22.639)" fill="#2d334a" opacity="0.3"/>
    </g>
  </g>
</svg>
