<svg xmlns="http://www.w3.org/2000/svg" width="67.796" height="67.81" viewBox="0 0 67.796 67.81">
  <g id="Frame" transform="translate(-0.021 0.001)">
    <g id="Group" transform="translate(9.846 11.271)">
      <path id="Vector" d="M13.782,33.977l-.788.247a3.483,3.483,0,0,1-1.352.247,4.5,4.5,0,0,1-4.224-3.4L.21,6.658A4.965,4.965,0,0,1,3.082.539L3.87.229A4.062,4.062,0,0,1,7.249.539a4.509,4.509,0,0,1,2.2,2.843l7.208,24.476A4.914,4.914,0,0,1,13.782,33.977Z" transform="translate(31.287 0)" fill="#272343"/>
      <path id="Vector-2" data-name="Vector" d="M0,0H4.224l.9,3.894L2.534,6.119,0,3.09Z" transform="translate(19.895 33.854)" fill="#272343"/>
      <g id="Group-2" data-name="Group" transform="translate(0 0)">
        <g id="Group-3" data-name="Group" transform="translate(11.786 2.887)">
          <path id="Vector-3" data-name="Vector" d="M5.237,32.326,0,14.463,21.006,0l9.011,30.472ZM2.647,15.514,6.814,29.668l20.1-1.483L19.711,3.77Z" fill="#272343"/>
        </g>
        <path id="Vector-4" data-name="Vector" d="M13.025,12.3,7.618,16.5A5.571,5.571,0,0,1,5.2,15.947a5.124,5.124,0,0,1-2.816-3.4L.241,5.439A6.038,6.038,0,0,1,1.311,0,2.556,2.556,0,0,0,2.888,0a8.024,8.024,0,0,0,.394,1.3c1.126,3.461,3.661,12.3,8.278,11.558A3.9,3.9,0,0,0,13.025,12.3Z" transform="translate(0 21.924)" fill="#272343"/>
        <g id="Group-4" data-name="Group" transform="translate(0 16.362)">
          <path id="Vector-5" data-name="Vector" d="M13.813,0,4.127,3.461a6.3,6.3,0,0,0-2.816,2.1A6.074,6.074,0,0,0,.241,11L2.325,18.11a5.4,5.4,0,0,0,5.237,3.956,5.268,5.268,0,0,0,1.915-.371l9.686-3.461Zm-.788,17.863-1.521.556-2.7.989a3.41,3.41,0,0,1-2.7-.124,3.123,3.123,0,0,1-1.633-1.916L2.381,10.26A3.4,3.4,0,0,1,2.719,7.6,3.891,3.891,0,0,1,4.8,5.81l7.546-2.72,4,13.6Z" transform="translate(0)" fill="#272343"/>
        </g>
        <g id="Group-5" data-name="Group" transform="translate(41.633 8.082)" opacity="0.301">
          <g id="Group-6" data-name="Group">
            <path id="Vector-6" data-name="Vector" d="M4.336,15.079,3.661,12.73C5.8,11.989,6.927,9.084,6.082,6.3A5.822,5.822,0,0,0,3.829,3.088,3.437,3.437,0,0,0,.676,2.655L0,.307a5.627,5.627,0,0,1,5.012.68A8.024,8.024,0,0,1,8.278,5.56C9.4,9.578,7.659,13.843,4.336,15.079Z" fill="#2d334a"/>
          </g>
        </g>
        <g id="Group-7" data-name="Group" transform="translate(31.292)">
          <path id="Vector-7" data-name="Vector" d="M16.649,27.858,9.441,3.382A4.674,4.674,0,0,0,7.244.539,4.062,4.062,0,0,0,3.865.229L3.077.539A5.017,5.017,0,0,0,.2,6.658L7.413,31.134a4.579,4.579,0,0,0,4.224,3.4,3.483,3.483,0,0,0,1.352-.247l.788-.247A5.012,5.012,0,0,0,16.649,27.858ZM13.1,31.628l-.788.309a2.176,2.176,0,0,1-2.759-1.545L2.345,5.916A2.486,2.486,0,0,1,3.753,2.887l.788-.309a2.6,2.6,0,0,1,.676-.124A2.19,2.19,0,0,1,7.3,4.123L14.509,28.6A2.43,2.43,0,0,1,13.1,31.628Z" transform="translate(0)" fill="#272343"/>
        </g>
        <g id="Group-8" data-name="Group" transform="translate(8.688 24.644)">
          <path id="Vector-8" data-name="Vector" d="M19.542,24.6,5.181,0,7.659,8.468,0,11.187l1.239,2.163,2.2-.8,1.014-.371,4.224-1.483,8.9,15.267A1.7,1.7,0,0,1,17.74,27.2a3.012,3.012,0,0,1-1.408,1.792c-1.352.742-2.985.494-3.548-.494l-7.152-12.3-2.253.742,7.49,12.856a4.342,4.342,0,0,0,3.829,2.1,5.575,5.575,0,0,0,2.7-.742,5.292,5.292,0,0,0,2.591-3.338A4.87,4.87,0,0,0,19.542,24.6Z" fill="#272343"/>
        </g>
        <g id="Group-9" data-name="Group" transform="translate(16.573 32.123)">
          <path id="Vector-9" data-name="Vector" d="M4.449,9.333,0,.865,8.616,0,9.743,3.77a3.626,3.626,0,0,1-.394,2.843,4.111,4.111,0,0,1-2.14,1.731ZM3.323,2.843,5.406,6.366,6.476,6a1.769,1.769,0,0,0,.957-.742.781.781,0,0,0,.113-.742L6.983,2.6Z" fill="#272343"/>
        </g>
      </g>
      <g id="Group-10" data-name="Group" transform="translate(25.344 10.267)">
        <path id="Vector-10" data-name="Vector" d="M3.019,8.753A.78.78,0,0,1,2.287,8.2L.034,1.088A.879.879,0,0,1,.485.038a.759.759,0,0,1,.957.494L3.695,7.64a.879.879,0,0,1-.451,1.051A.316.316,0,0,1,3.019,8.753Z" transform="translate(3.641 0)" fill="#272343"/>
        <path id="Vector-11" data-name="Vector" d="M2.4,6.776a.618.618,0,0,1-.563-.433L.035.842a.64.64,0,0,1,.394-.8A.533.533,0,0,1,1.161.41l1.8,5.5a.64.64,0,0,1-.394.8A.2.2,0,0,1,2.4,6.776Z" transform="translate(1.838 1.915)" fill="#272343"/>
        <path id="Vector-12" data-name="Vector" d="M1.816,4.775a.57.57,0,0,1-.451-.309L.014.572A.449.449,0,0,1,.3.016.482.482,0,0,1,.859.263L2.211,4.157a.449.449,0,0,1-.282.556C1.929,4.775,1.873,4.775,1.816,4.775Z" transform="translate(0 3.854)" fill="#272343"/>
      </g>
      <path id="Vector-13" data-name="Vector" d="M1.108,5.79a1.02,1.02,0,0,1-.732-.309A1.343,1.343,0,0,1,.264,3.751L3.023.413A1.072,1.072,0,0,1,4.6.289,1.343,1.343,0,0,1,4.713,2.02L1.953,5.358A1.05,1.05,0,0,1,1.108,5.79Z" transform="translate(48.184 1.671)" fill="#2d334a" opacity="0.301"/>
      <path id="Vector-14" data-name="Vector" d="M.577,3.848a1.018,1.018,0,0,1-.507-.68A1.327,1.327,0,0,1,.746,1.561L4.576.077A1.143,1.143,0,0,1,6.04.819a1.327,1.327,0,0,1-.676,1.607L1.535,3.91A1.009,1.009,0,0,1,.577,3.848Z" transform="translate(51.756 9.176)" fill="#2d334a" opacity="0.301"/>
      <path id="Vector-15" data-name="Vector" d="M5.862,2.725a1.333,1.333,0,0,0,.394-.8A1.183,1.183,0,0,0,5.3.562L1.244.006A1.12,1.12,0,0,0,.005,1.057a1.183,1.183,0,0,0,.957,1.36l4.055.556A.788.788,0,0,0,5.862,2.725Z" transform="translate(51.709 18.086)" fill="#2d334a" opacity="0.301"/>
    </g>
    <path id="Vector-16" data-name="Vector" d="M4.21,9.341a3.911,3.911,0,0,1-2.985-1.36,5.076,5.076,0,0,1,0-6.614,4,4,0,0,1,6.026,0,5.076,5.076,0,0,1,0,6.614A4.2,4.2,0,0,1,4.21,9.341Zm0-6.119a1.261,1.261,0,0,0-.957.433,1.642,1.642,0,0,0,0,2.1,1.307,1.307,0,0,0,1.915,0,1.642,1.642,0,0,0,0-2.1A1.261,1.261,0,0,0,4.21,3.222Z" transform="translate(58.815 47.589)" fill="#2d334a" opacity="0.301"/>
    <path id="Vector-17" data-name="Vector" d="M4.21,9.341a3.911,3.911,0,0,1-2.985-1.36,5.076,5.076,0,0,1,0-6.614,4,4,0,0,1,6.026,0,5.076,5.076,0,0,1,0,6.614A4.46,4.46,0,0,1,4.21,9.341Zm0-6.181a1.261,1.261,0,0,0-.957.433,1.642,1.642,0,0,0,0,2.1,1.307,1.307,0,0,0,1.915,0,1.642,1.642,0,0,0,0-2.1A1.525,1.525,0,0,0,4.21,3.16Z" transform="translate(0.021 46.6)" fill="#2d334a" opacity="0.301"/>
    <path id="Vector-18" data-name="Vector" d="M6.307,2.658H5.35V1.607A1.569,1.569,0,0,0,3.886,0,1.569,1.569,0,0,0,2.422,1.607V2.658H1.464A1.569,1.569,0,0,0,0,4.265,1.569,1.569,0,0,0,1.464,5.872h.957V6.923A1.569,1.569,0,0,0,3.886,8.53,1.569,1.569,0,0,0,5.35,6.923V5.872h.957A1.569,1.569,0,0,0,7.772,4.265,1.569,1.569,0,0,0,6.307,2.658Z" transform="translate(38.696 53.777)" fill="#2d334a" opacity="0.301"/>
    <path id="Vector-19" data-name="Vector" d="M6.2,2.663H5.353V1.674A1.736,1.736,0,0,0,4.34.067,1.508,1.508,0,0,0,2.425,1.612V2.663H1.58A1.648,1.648,0,0,0,0,4.208,1.515,1.515,0,0,0,1.467,5.877h.957V6.8A1.736,1.736,0,0,0,3.439,8.411,1.508,1.508,0,0,0,5.353,6.866V5.877h.957A1.515,1.515,0,0,0,7.775,4.208,1.6,1.6,0,0,0,6.2,2.663Z" transform="translate(37.566 -0.002)" fill="#2d334a" opacity="0.301"/>
  </g>
</svg>
