<svg xmlns="http://www.w3.org/2000/svg" width="74.458" height="74.566" viewBox="0 0 74.458 74.566">
  <g id="Frame" transform="translate(-0.012)">
    <g id="Group" transform="translate(0.012 9.395)">
      <g id="Group-2" data-name="Group" transform="translate(48.728 6.091)">
        <g id="Group-3" data-name="Group">
          <path id="Vector" d="M5.742,10.281C2.544,10.281,0,8,0,5.14S2.544,0,5.742,0s5.742,2.277,5.742,5.14S8.94,10.281,5.742,10.281Zm0-8.589A3.692,3.692,0,0,0,1.89,5.14,3.692,3.692,0,0,0,5.742,8.589,3.692,3.692,0,0,0,9.594,5.14,3.692,3.692,0,0,0,5.742,1.692Z" fill="#272343"/>
        </g>
      </g>
      <path id="Vector-2" data-name="Vector" d="M25.169,12.858a9.479,9.479,0,0,1-2.98,6.181,5.881,5.881,0,0,0-1.817-2.407,10.477,10.477,0,0,0-6.832-2.082c-4.87,0-7.7,2.082-8.649,4.49A9.542,9.542,0,0,1,2.055,10.45c.8-4.555,5.015-8.2,10.176-8.719a12.35,12.35,0,0,1,5.161.521,11.88,11.88,0,0,1,2.108.911,10.7,10.7,0,0,1,5.306,6.507.843.843,0,0,0,.872.651h.073a.808.808,0,0,0,.872-.976A12.718,12.718,0,0,0,17.537.56,14.706,14.706,0,0,0,12.449.04C6.126.5.892,4.985.093,10.645c-.945,7.353,5.451,13.6,13.447,13.6H13.9c6.978-.13,12.647-5.075,13.083-11.191a.808.808,0,0,0-.872-.846h-.073A.747.747,0,0,0,25.169,12.858ZM16.3,22.292a12.776,12.776,0,0,1-2.762.325,13.027,13.027,0,0,1-6.9-2.017c.291-2.082,2.471-4.034,6.9-4.034,2.907,0,4.87.846,5.887,2.082a3.305,3.305,0,0,1,.945,1.952A13.034,13.034,0,0,1,16.3,22.292Z" transform="translate(40.931 0)" fill="#272343"/>
      <path id="Vector-3" data-name="Vector" d="M7.777,9.76A10.037,10.037,0,0,1,4.8,16.722,5.881,5.881,0,0,0,2.98,14.315C5.088,8.849,2.326,3.514,0,0A11.88,11.88,0,0,1,2.108.911,10.029,10.029,0,0,1,7.777,9.76Z" transform="translate(58.322 2.382)" fill="#272343"/>
      <g id="Group-4" data-name="Group" transform="translate(48.728 46.953)">
        <g id="Group-5" data-name="Group">
          <path id="Vector-4" data-name="Vector" d="M5.742,10.281C2.544,10.281,0,8,0,5.14S2.544,0,5.742,0s5.742,2.277,5.742,5.14S8.94,10.281,5.742,10.281Zm0-8.589A3.692,3.692,0,0,0,1.89,5.14,3.692,3.692,0,0,0,5.742,8.589,3.692,3.692,0,0,0,9.594,5.14,3.692,3.692,0,0,0,5.742,1.692Z" fill="#272343"/>
        </g>
      </g>
      <path id="Vector-5" data-name="Vector" d="M15.627.13C14.973.065,14.246,0,13.519,0,6.105,0,0,5.4,0,12.1,0,18.739,6.033,24.14,13.447,24.2c7.414,0,13.519-5.4,13.519-12.1C27.038,6.051,22.1,1.041,15.627.13ZM15.7,22.318a11.759,11.759,0,0,1-2.181.2,13.027,13.027,0,0,1-6.9-2.017c.291-2.082,2.471-4.034,6.9-4.034a8.022,8.022,0,0,1,5.6,1.757,4.09,4.09,0,0,1,1.308,2.342A15.391,15.391,0,0,1,15.7,22.318ZM22.169,19a6.176,6.176,0,0,0-2.108-2.668,10.684,10.684,0,0,0-6.542-1.822c-4.87,0-7.7,2.147-8.649,4.49a9.587,9.587,0,0,1-2.98-6.9c0-5.726,5.233-10.411,11.629-10.411a12.953,12.953,0,0,1,3.925.586c4.506,1.431,7.7,5.27,7.7,9.825A9.587,9.587,0,0,1,22.169,19Z" transform="translate(40.951 40.966)" fill="#272343"/>
      <path id="Vector-6" data-name="Vector" d="M7.7,9.825a10.037,10.037,0,0,1-2.98,6.962,6.176,6.176,0,0,0-2.108-2.668C5.015,8.524,2.617,3.449,0,0,4.506,1.431,7.7,5.27,7.7,9.825Z" transform="translate(58.395 43.244)" fill="#272343"/>
      <path id="Vector-7" data-name="Vector" d="M18.491.13C17.837.065,17.183,0,16.529,0A17.558,17.558,0,0,0,5.844,3.514.951.951,0,0,0,5.99,5.14a1.2,1.2,0,0,0,1.381-.065A15.268,15.268,0,0,1,16.6,2.082a14.891,14.891,0,0,1,2.98.26c6.469,1.236,11.266,6.377,11.266,12.493a12.116,12.116,0,0,1-3.634,8.524,7.693,7.693,0,0,0-2.544-3.253,10.442,10.442,0,0,0-3.489-1.692,6.016,6.016,0,0,0,2.253-6.181,6.728,6.728,0,0,0-5.524-4.75c-4.434-.716-8.359,2.342-8.359,6.181a6.129,6.129,0,0,0,2.4,4.75,9.055,9.055,0,0,0-6.033,4.945,12.116,12.116,0,0,1-3.634-8.524,11.02,11.02,0,0,1,1.09-4.88.968.968,0,0,0-.436-1.236,1.158,1.158,0,0,0-1.672.455A13.457,13.457,0,0,0,.32,17.828c1.526,6.9,8.431,11.907,16.281,11.907.654,0,1.236-.065,1.817-.065C26.7,28.824,33.1,22.513,33.1,14.9S26.7.976,18.491.13ZM11.877,13.013a4.477,4.477,0,0,1,3.707-3.449c3.053-.521,5.742,1.562,5.742,4.164a4.452,4.452,0,0,1-3.707,4.164H15.439A4.213,4.213,0,0,1,11.877,13.013Zm6.178,14.575a11.424,11.424,0,0,1-1.454.065A15.067,15.067,0,0,1,8.17,25.181c.363-2.538,3.053-5.01,8.431-5.01,3.2,0,5.451.846,6.832,2.082a4.657,4.657,0,0,1,1.6,2.863A14.578,14.578,0,0,1,18.055,27.588Z" transform="translate(0 14.484)" fill="#272343"/>
      <path id="Vector-8" data-name="Vector" d="M11.266,12.558a12.116,12.116,0,0,1-3.634,8.524,7.693,7.693,0,0,0-2.544-3.253C8.94,9.89,3.125,2.993,0,0,6.4,1.236,11.266,6.377,11.266,12.558Z" transform="translate(19.582 16.827)" fill="#272343"/>
      <g id="Group-6" data-name="Group" transform="translate(29.454 16.152)">
        <g id="Group-7" data-name="Group">
          <path id="Vector-9" data-name="Vector" d="M7.919,12.247,21.15,6.858l.783,1.54L8.7,13.787Z" transform="translate(-7.919 -6.858)" fill="#272343"/>
        </g>
      </g>
      <g id="Group-8" data-name="Group" transform="translate(30.079 34.343)">
        <g id="Group-9" data-name="Group">
          <path id="Vector-10" data-name="Vector" d="M8.086,13.149l1.049-1.407,15.717,9.394L23.8,22.543Z" transform="translate(-8.086 -11.742)" fill="#272343"/>
        </g>
      </g>
    </g>
    <path id="Vector-11" data-name="Vector" d="M.806,1.433A2.42,2.42,0,0,1,.007.327C-.066-.063.443-.128,1.1.262L9.965,5.468A2.938,2.938,0,0,1,11.273,6.9c.073.39-.436.455-1.09.065L1.388,1.824C1.17,1.694,1.025,1.564.806,1.433Z" transform="translate(31.434 47.431)" fill="#2d334a" opacity="0.3"/>
    <path id="Vector-12" data-name="Vector" d="M1.413,4.083a1.972,1.972,0,0,1-1.236,0c-.363-.13-.145-.455.436-.716l8-3.123a2.21,2.21,0,0,1,1.672-.13c.363.13.145.455-.436.716l-8,3.123A1.118,1.118,0,0,1,1.413,4.083Z" transform="translate(32.353 28.256)" fill="#2d334a" opacity="0.3"/>
    <path id="Vector-13" data-name="Vector" d="M2.58,4.587A2.688,2.688,0,0,1,.763,3.937a2.115,2.115,0,0,1,0-3.253A2.758,2.758,0,0,1,4.4.683a2.115,2.115,0,0,1,0,3.253A3.059,3.059,0,0,1,2.58,4.587Zm0-3.058a.883.883,0,0,0-.581.2A.729.729,0,0,0,2,2.765a.962.962,0,0,0,1.163,0,.729.729,0,0,0,0-1.041A.883.883,0,0,0,2.58,1.529Z" transform="translate(36.71 36.014)" fill="#2d334a" opacity="0.3"/>
    <path id="Vector-14" data-name="Vector" d="M3.634,6.572A3.611,3.611,0,0,1,1.09,5.6a2.992,2.992,0,0,1,0-4.62,3.9,3.9,0,0,1,5.161,0,2.992,2.992,0,0,1,0,4.62A3.919,3.919,0,0,1,3.634,6.572Zm0-4.294a1.232,1.232,0,0,0-.8.325.947.947,0,0,0,0,1.431,1.238,1.238,0,0,0,1.6,0,.947.947,0,0,0,0-1.431A.975.975,0,0,0,3.634,2.277Z" transform="translate(12.906 14.835)" fill="#2d334a" opacity="0.3"/>
    <path id="Vector-15" data-name="Vector" d="M7.2,2.473H6.105V1.5A1.566,1.566,0,0,0,4.434,0,1.566,1.566,0,0,0,2.762,1.5v.976H1.672A1.566,1.566,0,0,0,0,3.969a1.566,1.566,0,0,0,1.672,1.5h1.09v.976a1.566,1.566,0,0,0,1.672,1.5,1.566,1.566,0,0,0,1.672-1.5V5.466H7.2a1.566,1.566,0,0,0,1.672-1.5A1.611,1.611,0,0,0,7.2,2.473Z" transform="translate(24.972 53.55)" fill="#2d334a" opacity="0.3"/>
    <path id="Vector-16" data-name="Vector" d="M5.306,1.822h-.8V1.106A1.213,1.213,0,0,0,3.271,0,1.213,1.213,0,0,0,2.035,1.106v.716h-.8A1.213,1.213,0,0,0,0,2.928,1.213,1.213,0,0,0,1.236,4.034h.8V4.75A1.213,1.213,0,0,0,3.271,5.856,1.213,1.213,0,0,0,4.506,4.75V4.034h.8A1.213,1.213,0,0,0,6.542,2.928,1.213,1.213,0,0,0,5.306,1.822Z" transform="translate(66.111)" fill="#2d334a" opacity="0.3"/>
    <path id="Vector-17" data-name="Vector" d="M5.306,1.822h-.8V1.106A1.213,1.213,0,0,0,3.271,0,1.213,1.213,0,0,0,2.035,1.106v.716h-.8A1.213,1.213,0,0,0,0,2.928,1.213,1.213,0,0,0,1.236,4.034h.8V4.75A1.213,1.213,0,0,0,3.271,5.856,1.213,1.213,0,0,0,4.506,4.75V4.034h.8A1.213,1.213,0,0,0,6.542,2.928,1.165,1.165,0,0,0,5.306,1.822Z" transform="translate(67.928 53.42)" fill="#2d334a" opacity="0.3"/>
  </g>
</svg>
