<svg xmlns="http://www.w3.org/2000/svg" width="72.352" height="36.354" viewBox="0 0 72.352 36.354">
  <g id="php-logo" transform="translate(0 0)" opacity="0.4">
    <path id="Path_351" data-name="Path 351" d="M5.725,10.123h10.73q4.724.04,6.846,2.723t1.4,7.327a14.053,14.053,0,0,1-1.241,4.164A12.378,12.378,0,0,1,20.9,28.02a8.944,8.944,0,0,1-4.284,2.642,19.724,19.724,0,0,1-4.724.561h-4.8L5.565,38.83H0L5.725,10.123h0m4.684,4.564L8.008,26.7a2.945,2.945,0,0,0,.48.04h.561a21.053,21.053,0,0,0,6.406-.761q2.562-.841,3.443-5.845.721-4.2-1.441-4.845a17.966,17.966,0,0,0-5.325-.6q-.48.04-.921.04H10.37l.04-.04" transform="translate(0 -2.475)"/>
    <path id="Path_352" data-name="Path 352" d="M39.226,0h5.525L43.19,7.647h4.965q4.084.08,6.086,1.682,2.042,1.6,1.2,6.086L52.759,28.747H47.154l2.562-12.732a3.613,3.613,0,0,0-.24-2.843q-.64-.841-2.763-.841l-4.444-.04L38.986,28.747H33.461L39.226,0h0" transform="translate(-8.183 0)"/>
    <path id="Path_353" data-name="Path 353" d="M68.558,10.123h10.73q4.724.04,6.846,2.723t1.4,7.327A14.054,14.054,0,0,1,86.3,24.336a12.378,12.378,0,0,1-2.562,3.683,8.944,8.944,0,0,1-4.284,2.642,19.724,19.724,0,0,1-4.724.561h-4.8L68.4,38.83H62.833l5.725-28.707h0m4.684,4.564L70.841,26.7a2.945,2.945,0,0,0,.48.04h.561a21.053,21.053,0,0,0,6.406-.761q2.562-.841,3.443-5.845.721-4.2-1.441-4.845a17.966,17.966,0,0,0-5.325-.6q-.48.04-.921.04H73.2l.04-.04" transform="translate(-15.367 -2.475)"/>
  </g>
</svg>
