<svg xmlns="http://www.w3.org/2000/svg" width="54.015" height="53.734" viewBox="0 0 54.015 53.734">
  <g id="Group_19" data-name="Group 19" transform="translate(0)" opacity="0.396">
    <g id="python-5" transform="translate(0 0)">
      <path id="Path_128" data-name="Path 128" d="M26.958.072C13.245.072,14.1,6.019,14.1,6.019l.015,6.161H27.2v1.85H8.92s-8.775-1-8.775,12.841S7.8,40.215,7.8,40.215h4.571v-6.42s-.246-7.659,7.536-7.659H32.889s7.292.118,7.292-7.047V7.242S41.288.072,26.958.072ZM19.742,4.215a2.352,2.352,0,1,1-1.665.689A2.352,2.352,0,0,1,19.742,4.215Z" transform="translate(-0.145 -0.072)"/>
      <path id="Path_129" data-name="Path 129" d="M79.387,104.466c13.712,0,12.856-5.947,12.856-5.947l-.015-6.161H79.142v-1.85H97.425s8.774,1,8.774-12.841-7.659-13.345-7.659-13.345H93.971v6.42s.246,7.659-7.536,7.659H73.456s-7.292-.118-7.292,7.047V97.3s-1.107,7.169,13.223,7.169Zm7.215-4.143a2.352,2.352,0,1,1,1.665-.689,2.352,2.352,0,0,1-1.665.689Z" transform="translate(-52.185 -50.732)" fill="#9d9d9d"/>
    </g>
  </g>
</svg>
