<svg xmlns="http://www.w3.org/2000/svg" xmlns:xlink="http://www.w3.org/1999/xlink" width="40.146" height="115.627" viewBox="0 0 40.146 115.627">
  <defs>
    <linearGradient id="linear-gradient" x1="0.5" y1="0.482" x2="0.5" y2="1" gradientUnits="objectBoundingBox">
      <stop offset="0" stop-color="#272343" stop-opacity="0"/>
      <stop offset="1" stop-color="#272343"/>
    </linearGradient>
    <linearGradient id="linear-gradient-2" y1="0.518" y2="0" xlink:href="#linear-gradient"/>
  </defs>
  <g id="Group_944" data-name="Group 944" transform="translate(19681.307 913.577)">
    <g id="post" transform="translate(-19679.807 -874.339)">
      <path id="Path_1616" data-name="Path 1616" d="M2,20.573v6.408c0,5.291,1.3,7.439,2.983,9.183,1.746,1.688,3.9,2.987,9.186,2.987H26.977c5.29,0,7.44-1.3,9.186-2.987,1.686-1.744,2.983-3.889,2.983-9.183V14.169c0-5.291-1.3-7.44-2.983-9.184C34.418,3.3,32.267,2,26.977,2H14.169C8.88,2,6.729,3.3,4.983,4.985,3.3,6.731,2,8.878,2,14.169Z" transform="translate(-2 -2)" fill="none" stroke="#272343" stroke-linecap="round" stroke-linejoin="round" stroke-width="3"/>
      <line id="Line_57" data-name="Line 57" x2="20.263" transform="translate(8.442 18.575)" fill="none" stroke="#272343" stroke-linecap="round" stroke-linejoin="round" stroke-width="3"/>
      <line id="Line_58" data-name="Line 58" y2="20.263" transform="translate(18.579 8.441)" fill="none" stroke="#272343" stroke-linecap="round" stroke-linejoin="round" stroke-width="3"/>
    </g>
    <path id="Path_1619" data-name="Path 1619" d="M12.662.5H23.883c4.933,0,7.2,1.213,9.09,3.036l.037.037A9.555,9.555,0,0,1,35.2,6.943a16.23,16.23,0,0,1,.849,5.719V23.886c0,4.937-1.213,7.2-3.035,9.088l-.036.036A9.583,9.583,0,0,1,29.6,35.2a16.207,16.207,0,0,1-5.719.851H12.662c-4.937,0-7.205-1.215-9.091-3.038l-.036-.036A9.557,9.557,0,0,1,1.349,29.6,16.224,16.224,0,0,1,.5,23.886V12.662c0-4.936,1.213-7.2,3.035-9.089l.037-.037A9.575,9.575,0,0,1,6.943,1.35,16.22,16.22,0,0,1,12.662.5Zm18.21,5.176C29.723,4.572,28.227,3.5,23.883,3.5H12.662c-4.346,0-5.841,1.072-6.988,2.176C4.571,6.822,3.5,8.316,3.5,12.662V23.886c0,4.348,1.071,5.84,2.174,6.984,1.146,1.1,2.64,2.177,6.987,2.177H23.883c4.344,0,5.84-1.073,6.988-2.178,1.1-1.144,2.174-2.637,2.174-6.984V12.662C33.045,8.314,31.974,6.821,30.871,5.676Z" transform="translate(-19679.506 -914.077)" fill="url(#linear-gradient)"/>
    <path id="Path_1619-2" data-name="Path 1619" d="M12.662,36.048H23.883c4.933,0,7.2-1.213,9.09-3.036l.037-.037A9.555,9.555,0,0,0,35.2,29.605a16.23,16.23,0,0,0,.849-5.719V12.662c0-4.937-1.213-7.2-3.035-9.088l-.036-.036A9.583,9.583,0,0,0,29.6,1.351,16.207,16.207,0,0,0,23.883.5H12.662C7.724.5,5.457,1.715,3.571,3.538l-.036.036a9.557,9.557,0,0,0-2.186,3.37A16.224,16.224,0,0,0,.5,12.662V23.886c0,4.936,1.213,7.2,3.035,9.089l.037.037A9.575,9.575,0,0,0,6.943,35.2,16.22,16.22,0,0,0,12.662,36.048Zm18.21-5.176c-1.148,1.1-2.645,2.176-6.988,2.176H12.662c-4.346,0-5.841-1.072-6.988-2.176-1.1-1.146-2.174-2.64-2.174-6.986V12.662c0-4.348,1.071-5.84,2.174-6.984C6.82,4.573,8.315,3.5,12.662,3.5H23.883c4.344,0,5.84,1.073,6.988,2.178,1.1,1.144,2.174,2.637,2.174,6.984V23.886C33.045,28.234,31.974,29.727,30.871,30.872Z" transform="translate(-19679.506 -833.998)" fill="url(#linear-gradient-2)"/>
  </g>
</svg>
