<svg xmlns="http://www.w3.org/2000/svg" width="81.14" height="79.494" viewBox="0 0 81.14 79.494">
  <g id="Group_1008" data-name="Group 1008" transform="translate(-174.86 -3149.506)">
    <g id="noun-raven-1158281" transform="translate(40.652 2969.303)">
      <path id="Path_364" data-name="Path 364" d="M-1990.648,1582.866l12.49-10.263h-27.022s-6.834,32.1,31.431,32.1c20.436,0,37.264-27.247,37.264-27.247" transform="translate(2142 -1390.4)" fill="none" stroke="#272343" stroke-linecap="round" stroke-linejoin="round" stroke-width="4"/>
      <path id="Path_365" data-name="Path 365" d="M-1841.421,1616.439a7.434,7.434,0,0,1-7.434-7.435,7.435,7.435,0,0,1,7.434-7.434h43.107" transform="translate(2011.376 -1414.531)" fill="none" stroke="#272343" stroke-linecap="round" stroke-linejoin="round" stroke-width="4"/>
      <path id="Path_366" data-name="Path 366" d="M-1773.545,1758.064l4.94,4.344-5.562,6.812" transform="translate(1949.156 -1544.901)" fill="none" stroke="#272343" stroke-linecap="round" stroke-linejoin="round" stroke-width="4"/>
      <path id="Path_367" data-name="Path 367" d="M-1823.248,1824.872h14.381" transform="translate(1990.044 -1600.557)" fill="none" stroke="#272343" stroke-linecap="round" stroke-linejoin="round" stroke-width="4"/>
      <path id="Path_368" data-name="Path 368" d="M181.615,206.164a2.45,2.45,0,1,1-2.451-2.45,2.45,2.45,0,0,1,2.451,2.45" transform="translate(-33.629 -17.92)" fill="#272343"/>
      <path id="Path_369" data-name="Path 369" d="M-1792.28,1646.12h33.537" transform="translate(1964.245 -1451.644)" fill="none" stroke="#272343" stroke-linecap="round" stroke-linejoin="round" stroke-width="4"/>
      <path id="Path_370" data-name="Path 370" d="M-1763.1,1690.64h6.19" transform="translate(1939.94 -1488.732)" fill="none" stroke="#272343" stroke-linecap="round" stroke-linejoin="round" stroke-width="4"/>
    </g>
    <text id="KARGA" transform="translate(175 3222)" fill="#272343" font-size="22" font-family="Scandia-Medium, Scandia" font-weight="500"><tspan x="0" y="0">KARGA</tspan></text>
  </g>
</svg>
