<svg xmlns="http://www.w3.org/2000/svg" width="48.345" height="48.348" viewBox="0 0 48.345 48.348">
  <g id="Reels" transform="translate(-0.503 -0.492)">
    <path id="Path_1614" data-name="Path 1614" d="M24.657,2.009a21.986,21.986,0,1,1,0,43.948,24.638,24.638,0,0,1-6.558-.87,1.808,1.808,0,0,0-1.207.091L12.4,47.163a1.815,1.815,0,0,1-2.544-1.6L9.73,41.526a1.826,1.826,0,0,0-.612-1.289A21.5,21.5,0,0,1,2,23.983,21.861,21.861,0,0,1,24.659,2.009Z" transform="translate(0 0)" fill="none" stroke="#272343" stroke-width="3"/>
    <path id="Path_1615" data-name="Path 1615" d="M32.568,11.414a1.493,1.493,0,0,0-2.179-1.978L24.6,14.08a1.427,1.427,0,0,1-1.717,0L17.322,9.914a3.57,3.57,0,0,0-5.158.951L6.349,19.882a1.493,1.493,0,0,0,2.177,1.982l5.79-4.642a1.427,1.427,0,0,1,1.719,0l5.555,4.168a3.57,3.57,0,0,0,5.161-.951Z" transform="translate(5.198 9.015)" fill="#272343" fill-rule="evenodd"/>
  </g>
</svg>
