<svg xmlns="http://www.w3.org/2000/svg" width="754.5" height="507.622" viewBox="0 0 754.5 507.622">
  <g id="Group_943" data-name="Group 943" transform="translate(-825 -183.378)">
    <g id="Group_139" data-name="Group 139" transform="translate(1012.792 445.373)">
      <g id="Rectangle_216" data-name="Rectangle 216" transform="translate(0 0)" fill="#fff">
        <path d="M0,83.052,77.5,0l49.956,62.215L44.09,145.5Z" stroke="none"/>
        <path d="M 124.8041076660156 62.11500930786133 L 77.29916381835938 2.824005126953125 L 2.196389675140381 83.18013763427734 L 44.2934684753418 142.6846466064453 L 124.8041076660156 62.11500930786133 M 127.4568481445312 62.21455383300781 L 44.08979797363281 145.4985961914062 L 0 83.05242919921875 L 77.50040435791016 0 L 127.4568481445312 62.21455383300781 Z" stroke="none" fill="#272343"/>
      </g>
      <g id="Rectangle_217" data-name="Rectangle 217" transform="translate(10.553 13.42)" fill="#fff">
        <path d="M0,69.564,65.378,0l38.965,49.058L35.1,118.775Z" stroke="none"/>
        <path d="M 97.85074615478516 48.81082153320312 L 64.87467956542969 7.067489624023438 L 5.599267482757568 69.88697052001953 L 35.60401153564453 111.747444152832 L 97.85074615478516 48.81082153320312 M 104.3435134887695 49.0579948425293 L 35.09558486938477 118.7750396728516 L 0 69.56444549560547 L 65.37847900390625 0 L 104.3435134887695 49.0579948425293 Z" stroke="none" fill="#272343"/>
      </g>
      <g id="Ellipse_4" data-name="Ellipse 4" transform="translate(60.825 33.897)" fill="#fff">
        <path d="M5.882,6.242a8.293,8.293,0,0,1,2.7-1.916,7.064,7.064,0,0,1,2.966-.6,6.667,6.667,0,0,1,2.884.72,7.283,7.283,0,0,1,2.447,2.04,8.712,8.712,0,0,1,1.511,3.034,10.122,10.122,0,0,1,.334,3.424A10.567,10.567,0,0,1,17.9,16.34a9.754,9.754,0,0,1-1.937,2.943,8.257,8.257,0,0,1-2.729,1.9,7.038,7.038,0,0,1-2.978.562,6.671,6.671,0,0,1-2.871-.758,7.313,7.313,0,0,1-2.413-2.058A8.74,8.74,0,0,1,3.5,15.91a10.131,10.131,0,0,1-.321-3.388,10.569,10.569,0,0,1,.8-3.356A9.773,9.773,0,0,1,5.882,6.242Z" stroke="none"/>
        <path d="M 14.83588123321533 17.82185935974121 C 15.47804355621338 17.1544132232666 15.97986030578613 16.3744010925293 16.33720397949219 15.53577899932861 C 16.69468307495117 14.69685173034668 16.90741920471191 13.79965877532959 16.97148323059082 12.89828968048096 C 17.03554344177246 11.99700164794922 16.95093154907227 11.09193992614746 16.71392631530762 10.23717403411865 C 16.47704696655273 9.382864952087402 16.08803939819336 8.579169273376465 15.54337882995605 7.879988193511963 C 14.99924755096436 7.181482791900635 14.35063743591309 6.652606964111328 13.64419841766357 6.294219970703125 C 12.93856430053711 5.936240196228027 12.1753044128418 5.748398303985596 11.40077877044678 5.731414794921875 C 10.62716388702393 5.714450359344482 9.842282295227051 5.86794376373291 9.0921630859375 6.192629337310791 C 8.342849731445312 6.516964912414551 7.628095626831055 7.01218318939209 6.993651390075684 7.679172992706299 C 6.359731674194336 8.345612525939941 5.86482048034668 9.121700286865234 5.512440204620361 9.954311370849609 C 5.160187721252441 10.78661823272705 4.950201034545898 11.67578601837158 4.8861985206604 12.56881332397461 C 4.82219123840332 13.46191787719727 4.904164791107178 14.35928058624268 5.136036396026611 15.20787525177002 C 5.368030548095703 16.05692100524902 5.750181674957275 16.85751533508301 6.286606788635254 17.55647850036621 C 6.82354736328125 18.25611114501953 7.465150833129883 18.78890037536621 8.165675163269043 19.15318870544434 C 8.866996765136719 19.51789283752441 9.627449035644531 19.71375465393066 10.40100574493408 19.73897361755371 C 11.17547416687012 19.76422691345215 11.96305370330811 19.61843681335449 12.71739196777344 19.2998161315918 C 13.47254371643066 18.98085784912109 14.19425392150879 18.48874855041504 14.83588123321533 17.82185935974121 M 15.96518802642822 19.28243827819824 C 15.13758277893066 20.1412181854248 14.20800304412842 20.77439308166504 13.23611831665039 21.18419456481934 C 12.26557731628418 21.59343338012695 11.25306224822998 21.77982139587402 10.25776767730713 21.74584579467773 C 9.263978004455566 21.7119197845459 8.287397384643555 21.45830154418945 7.386685848236084 20.98746490478516 C 6.487291812896729 20.51732063293457 5.663420677185059 19.83053207397461 4.97327184677124 18.92936134338379 C 4.283976554870605 18.02930641174316 3.793006658554077 17.00016021728516 3.495001792907715 15.9096508026123 C 3.19719934463501 14.81988525390625 3.091931343078613 13.66822624206543 3.174166440963745 12.52213859558105 C 3.256392002105713 11.37617874145508 3.52612566947937 10.23513126373291 3.978660821914673 9.166419982910156 C 4.431408405303955 8.097207069396973 5.067395687103271 7.099772453308105 5.882241249084473 6.241739749908447 C 6.697953701019287 5.382794857025146 7.616036415100098 4.744479179382324 8.578277587890625 4.325793266296387 C 9.541843414306641 3.906530618667603 10.54990577697754 3.707409143447876 11.54379272460938 3.727686405181885 C 12.53918170928955 3.747994184494019 13.5203971862793 3.988365888595581 14.42823314666748 4.448080062866211 C 15.33740139007568 4.908469200134277 16.17285346984863 5.588784217834473 16.87490844726562 6.488085746765137 C 17.57783699035645 7.38850736618042 18.08016395568848 8.42277717590332 18.38626098632812 9.521990776062012 C 18.69256782531738 10.62196063995361 18.80220413208008 11.78633975982666 18.71988677978516 12.94595623016357 C 18.63755416870117 14.10570335388184 18.36326789855957 15.26001262664795 17.90207862854004 16.33967018127441 C 17.44110679626465 17.41881561279297 16.79368209838867 18.4227409362793 15.96518802642822 19.28243827819824 Z" stroke="none" fill="#272343"/>
      </g>
      <path id="Rectangle_218" data-name="Rectangle 218" d="M0,25.271,24,0l1.625,2.16L1.564,27.434Z" transform="translate(25.837 57.903)" fill="#272343"/>
      <path id="Rectangle_219" data-name="Rectangle 219" d="M0,25.276,24.121,0l1.634,2.172L1.573,27.451Z" transform="translate(28.97 62.229)" fill="#272343"/>
      <path id="Rectangle_220" data-name="Rectangle 220" d="M0,13.871,13.3,0l1.616,2.187L1.582,16.058Z" transform="translate(32.12 77.991)" fill="#272343"/>
    </g>
    <g id="_307959" data-name="307959" transform="translate(361.879 1114.584) rotate(43)">
      <path id="Path_359" data-name="Path 359" d="M337.421-1273.417a48.964,48.964,0,0,0-19.426,5.321c-9.235,4.5-18.92,10.9-41.95,27.591-15.316,11.093-15.963,11.543-20.468,14.021-4.336,2.365-9.038,4.364-19.99,8.615-10.839,4.195-13.993,5.772-16.329,8.249-.957.985-.845.76-7.686,18.131-13.345,33.9-22.833,56.477-28.07,66.782-1.858,3.632-2.534,4.674-3.716,5.772-3.379,3.069-7.489,3.379-20.581,1.577-5.969-.817-11.684-1.014-13.6-.451a22.623,22.623,0,0,1-8.137.591c-7.067-.76-14.725-4.842-14.725-7.827,0-.394.957-1.6,2.7-3.407,1.633-1.689,2.618-2.9,2.506-3.1-.338-.535-2.618-.113-10.192,1.858-17.118,4.448-23.171,5.744-26.887,5.744-2.337,0-3.041-.31-3.041-1.351,0-1.436,1.014-2.675,8.784-10.839,2.984-3.125,4.955-5.406,4.843-5.6-.141-.225-1.774-.253-5.969-.113-4.674.141-6.081.281-7.433.76-4.223,1.408-9.46,4.673-19.089,11.937-9.46,7.123-10.868,8.024-12.332,8.024-1.774,0-1.52-1.239,1.914-9.854,4.871-12.219,6.7-20.046,5.631-23.959a7.558,7.558,0,0,0-1.351-2.252,18.268,18.268,0,0,1-1.38-1.745c-.253-.479-.394-.394-1.52.873-.676.76-3.66,4.533-6.644,8.39-8.446,10.98-12.7,15.795-15.541,17.625-2.787,1.774-2.9.929-.619-4.927.9-2.365,1.971-5.293,2.393-6.532a35.386,35.386,0,0,1,2.449-5.349c2.2-4.026,2.252-4.336.985-6.644-1.8-3.266-2.7-6.588-4.533-16.724-.563-3.1-1.1-5.687-1.154-5.743s-.113.31-.113.845c-.028,3.463-4.843,19.145-10.445,34.067-4.42,11.74-8.137,19.877-9.854,21.538-.788.76-.816.76-1.408.225-1.914-1.745-3.519-7.714-5.912-22.073-.76-4.561-1.52-8.587-1.689-8.925-.732-1.408-4.617-3.463-6.5-3.463-1.154,0-1.239.619-.422,2.477a17.063,17.063,0,0,1,1.014,3.857c.169,1.239.422,11.487.591,22.805.45,32.349.816,41.556,1.689,42.456a3.819,3.819,0,0,0,1.577.338c2.7.2,7.32,2.112,15.034,6.222l4.364,2.309,6.335-1.38a48.309,48.309,0,0,1,7.095-1.267c5.969,1.126,67.936,31.11,69.963,33.87a2.823,2.823,0,0,1,.366,1.436c0,1.915-2.2,5.152-9.854,14.556a54.582,54.582,0,0,0-4.561,6.278,4.649,4.649,0,0,0-.7,3.322c.141,1.323.563,2.224,2.731,5.884,4.5,7.6,6.419,12.529,7.207,18.441.394,2.956.422,5.068.282,12.951-.084,5.18-.253,11.318-.338,13.655-.282,6.672.366,7.911,2.731,5.293,2.393-2.7,5.687-8.108,13.035-21.425,2.421-4.392,4.9-8.728,5.518-9.6,3.463-5.124,13.767-10.22,24.748-12.247,4.674-.873,8.671-.366,15.626,1.943,6.25,2.083,12.05,4.674,29.309,13.035,9.263,4.477,10.839,5.124,12.416,5.124,2.421,0,4.167,1.774,5.377,5.49.648,1.971.76,2.844.873,7.038.2,7.968-.535,10.389-5.237,17.371-4.843,7.123-5.715,9.8-5.912,18.019-.113,5.434-.113,5.574.591,7.067,1.042,2.252,2.337,3.407,8.728,7.6a77.583,77.583,0,0,1,7.827,5.743,15.187,15.187,0,0,0,1.886,1.633c-.084-.169-1.211-1.971-2.478-4.054s-2.449-4.139-2.59-4.561c-.394-1.154.366-2.365,2.309-3.6l1.661-1.07-3.716-.2a39.859,39.859,0,0,1-4.561-.394c-1.858-.507-3.716-4.392-4-8.362-.31-4.082.7-5.49,5.377-7.714,3.688-1.774,5.152-2.14,8.052-2.112a7.821,7.821,0,0,1,4.336.9c1.07.507,2.562,1.3,3.35,1.774a9.185,9.185,0,0,0,3.266,1.154c2.506.394,2.984.676,5.349,3.21a9.956,9.956,0,0,0,2.168,2c.225-.225-.45-2.449-1.211-4-1.014-2.027-5.349-6.166-8.108-7.8a60.056,60.056,0,0,0-5.49-2.618,22.134,22.134,0,0,1-4.054-2.055,6.3,6.3,0,0,1-1.858-4.561,51.532,51.532,0,0,1,2.506-11.205c1.577-3.1,3.491-2.618,5.1,1.351a28.459,28.459,0,0,0,7.658,10.445c2.168,1.717,2.337,1.464.929-1.577-1.52-3.266-2.759-7.095-2.618-8.193.084-.732.2-.816.985-.788a29.469,29.469,0,0,1,4.336,1.351,31.484,31.484,0,0,0,3.519,1.211,19.467,19.467,0,0,0-2.478-1.746c-5.265-3.463-7.01-6-7.545-10.952a16.184,16.184,0,0,1-.169-3.125c.282-.76,6.391-1.717,12.726-2.027a16.23,16.23,0,0,0,4.054-.422c0-.45-1.83-1.351-4.364-2.168-1.971-.648-14.753-3.688-15.457-3.688-.479,0-.732-2.787-.732-7.771v-5.659l2.168-.817a22.43,22.43,0,0,0,4-2.083l1.858-1.267h2.956a24.077,24.077,0,0,1,9.4,2.027,6.452,6.452,0,0,0,3.97.563,61.414,61.414,0,0,0,11.262-2.59,25.485,25.485,0,0,1,6.053-1.014c4.814-.366,5.8-.7,7.461-2.646,1.717-2.027,2.534-2.252,7.32-1.971,2.027.084,4.73.282,6.025.366,4.111.338,4.364.084,7.433-7.01l1.774-4.054,1.689-.9c1.633-.873,5.152-2,13.43-4.279,5.743-1.6,5.941-1.689,6.785-3.379a25.2,25.2,0,0,0,2.14-7.292c0-1.492,2.055-3.294,7.32-6.5,5.659-3.435,8.221-5.209,8.728-6,2.083-3.294,2.815-4.927,2.815-6.222a6.393,6.393,0,0,1,.45-2.337c.7-1.464,5.406-5.715,9.4-8.5,3.885-2.731,4.786-3.773,6.025-7.01a48.352,48.352,0,0,0,2.478-10.3c.535-4.589.225-4.477-5.8,2.083-5.772,6.25-6.025,6.419-10.333,7.4-17.146,3.885-25.451,5.94-34.151,8.446-9.263,2.7-19.145,5.18-32.124,8.052-7.151,1.6-6.729,1.577-8.7.591a21.489,21.489,0,0,1-6.7-6.335c-1.717-2.675-1.52-3.209,1.858-5.011a10.458,10.458,0,0,0,2.337-1.52c.056-.2-.7-.535-1.8-.788-3.885-.985-17.85-7.292-26.8-12.078-7.686-4.139-8.784-5.011-8.193-6.56.648-1.717,3.294-3.8,8.728-6.87,3.745-2.14,4.983-3.463,6.166-6.616l.957-2.534,5.209-5.068c7.489-7.32,9.4-10.023,11.6-16.611,3.716-11.008,8.5-35.784,9.319-48.256.253-4.054.394-4.814,1.014-6.053.929-1.886,2.872-4.251,7.4-9.037,4.448-4.73,5.631-6.194,7.855-9.882,4.364-7.236,14.274-17.681,24.86-26.268a161.2,161.2,0,0,0,14.584-13.43c9.432-9.629,19.342-21.622,21.651-26.24,1.351-2.647.45-3.238-5.18-3.322C342.01-1273.642,338.969-1273.557,337.421-1273.417ZM218.469-1002.77c1.548.028,1.548.028,1.492.873a78.8,78.8,0,0,0,.225,10.67,9.963,9.963,0,0,1,.169,2.618,16,16,0,0,1-3.35-1.633c-4.983-2.815-6.138-3.322-8.108-3.66-3.745-.591-3.885-1.042-1.436-4.674,2.815-4.223,3.632-4.7,7.067-4.42C215.851-1002.883,217.625-1002.8,218.469-1002.77Z" transform="translate(0)" fill="#272343"/>
    </g>
    <line id="Line_13" data-name="Line 13" x2="211" transform="translate(1329.5 327.5)" fill="none" stroke="#e8e8e8" stroke-width="2"/>
    <line id="Line_18" data-name="Line 18" x2="211" transform="translate(896 636.5)" fill="none" stroke="#e8e8e8" stroke-width="2"/>
    <line id="Line_14" data-name="Line 14" x2="211" transform="translate(1258.5 299.5)" fill="none" stroke="#e8e8e8" stroke-width="2"/>
    <line id="Line_17" data-name="Line 17" x2="211" transform="translate(825 608.5)" fill="none" stroke="#e8e8e8" stroke-width="2"/>
    <line id="Line_15" data-name="Line 15" x2="85" transform="translate(1494.5 299.5)" fill="none" stroke="#e8e8e8" stroke-width="2"/>
    <line id="Line_16" data-name="Line 16" x2="85" transform="translate(1061 608.5)" fill="none" stroke="#e8e8e8" stroke-width="2"/>
  </g>
</svg>
