<svg xmlns="http://www.w3.org/2000/svg" width="123.363" height="43.596" viewBox="0 0 123.363 43.596">
  <g id="shopify-ar21" transform="translate(0)" opacity="0.4">
    <path id="Path_360" data-name="Path 360" d="M43.272,20.736a.429.429,0,0,0-.384-.359c-.153-.025-3.521-.258-3.521-.258L36.8,17.551c-.231-.258-.743-.182-.937-.128-.025,0-.513.153-1.309.412-.775-2.24-2.147-4.3-4.561-4.3h-.206a2.992,2.992,0,0,0-2.257-1.309c-5.623.025-8.3,7.039-9.151,10.623l-3.93,1.206c-1.206.384-1.251.412-1.411,1.562L9.724,51.178l24.839,4.649,13.462-2.9c0-.025-4.727-31.944-4.751-32.187Zm-10.1-2.468c-.626.206-1.349.412-2.105.644v-.462a10.2,10.2,0,0,0-.513-3.405C31.817,15.238,32.664,16.651,33.176,18.268Zm-4.134-2.927a10.424,10.424,0,0,1,.562,3.766v.231l-4.343,1.349c.85-3.174,2.417-4.742,3.778-5.333Zm-1.668-1.562a1.33,1.33,0,0,1,.719.231c-1.812.844-3.727,2.974-4.549,7.238L20.109,22.3c.969-3.236,3.23-8.528,7.262-8.528Z" transform="translate(-9.724 -12.231)" fill="#a5a5a5"/>
    <path id="Path_361" data-name="Path 361" d="M38.3,19.42c-.153-.025-3.521-.258-3.521-.258L32.21,16.6a.5.5,0,0,0-.359-.153L29.976,54.868l13.462-2.9L38.683,19.8a.464.464,0,0,0-.384-.384Z" transform="translate(-5.132 -11.276)" fill="#505050"/>
    <path id="Path_362" data-name="Path 362" d="M28.91,25.067,27.239,30A7.731,7.731,0,0,0,24,29.225c-2.622,0-2.748,1.644-2.748,2.056,0,2.245,5.882,3.108,5.882,8.4,0,4.161-2.646,6.833-6.191,6.833A8.63,8.63,0,0,1,14.5,43.869l1.133-3.778s2.233,1.926,4.137,1.926a1.681,1.681,0,0,0,1.747-1.7c0-2.956-4.83-3.084-4.83-7.912,0-4.06,2.927-8.017,8.81-8.017a7.55,7.55,0,0,1,3.418.675Z" transform="translate(-8.641 -9.474)" fill="#fff"/>
    <path id="Path_363" data-name="Path 363" d="M51.748,33.071c-.961-.515-1.457-.961-1.457-1.57,0-.773.675-1.272,1.77-1.272a6.281,6.281,0,0,1,2.361.516l.886-2.691s-.812-.628-3.192-.628c-3.32,0-5.626,1.9-5.626,4.573,0,1.511,1.07,2.674,2.507,3.5,1.162.675,1.57,1.121,1.57,1.825s-.572,1.292-1.66,1.292a7.413,7.413,0,0,1-3.116-.829l-.94,2.691a7.173,7.173,0,0,0,3.744.94c3.41,0,5.864-1.678,5.864-4.711.018-1.641-1.218-2.785-2.7-3.652Zm13.609-5.661a5.108,5.108,0,0,0-4.021,2.019l-.056-.018,1.457-7.625h-3.8L55.252,41.2h3.8l1.272-6.639c.5-2.507,1.795-4.058,3.005-4.058.846,0,1.18.572,1.18,1.4a8.659,8.659,0,0,1-.166,1.678l-1.438,7.6h3.8L68.2,33.334a14.143,14.143,0,0,0,.276-2.466c-.018-2.139-1.143-3.43-3.116-3.43Zm11.691,0c-4.573,0-7.6,4.132-7.6,8.71a4.962,4.962,0,0,0,5.238,5.312c4.486,0,7.525-4.021,7.525-8.71,0-2.729-1.6-5.312-5.158-5.312Zm-1.865,11.12c-1.292,0-1.844-1.1-1.844-2.466,0-2.176,1.121-5.735,3.192-5.735,1.346,0,1.795,1.162,1.795,2.288,0,2.337-1.129,5.913-3.14,5.913Zm16.745-11.12a5.18,5.18,0,0,0-4.021,2.242h-.056l.224-2.019H84.71l-.773,5.036L81.3,46.574h3.782l1.053-5.626h.074a4.383,4.383,0,0,0,2.233.5c4.463,0,7.376-4.573,7.376-9.2.018-2.545-1.121-4.831-3.891-4.831ZM88.295,38.585a2.368,2.368,0,0,1-1.57-.554l.628-3.56c.449-2.361,1.678-3.948,3.005-3.948,1.162,0,1.511,1.07,1.511,2.085.006,2.474-1.448,5.978-3.57,5.978ZM101.261,21.95a2.16,2.16,0,0,0-1.549.64,2.1,2.1,0,0,0-.613,1.555,1.759,1.759,0,0,0,1.795,1.9h.056a2.147,2.147,0,0,0,2.231-2.2,1.8,1.8,0,0,0-1.9-1.9ZM95.955,41.167h3.8l2.581-13.457H98.522m13.494-.018h-2.653l.13-.628c.224-1.292,1-2.453,2.242-2.453a4.134,4.134,0,0,1,1.218.184l.734-2.972a5.086,5.086,0,0,0-2.066-.331,5.68,5.68,0,0,0-3.726,1.272,7.246,7.246,0,0,0-2.208,4.3l-.123.628h-1.77l-.554,2.858h1.77l-2.019,10.623H106.8l2.019-10.623h2.62l.515-2.858Zm9.149.018-3.45,9.258h-.056l-.94-9.258h-4L115,40.065a.871.871,0,0,1-.074.628,6.546,6.546,0,0,1-2.066,2.288,8.624,8.624,0,0,1-2.139,1.07l1.053,3.226a8.71,8.71,0,0,0,3.718-2.072,25.532,25.532,0,0,0,4.98-7.544l4.647-9.958h-3.959Z" transform="translate(-1.759 -10.132)"/>
  </g>
</svg>
