<svg xmlns="http://www.w3.org/2000/svg" width="54.141" height="54.264" viewBox="0 0 54.141 54.264">
  <g id="noun-instagram-stories-682475" transform="translate(-73.484 -28.175)">
    <path id="Path_1619" data-name="Path 1619" d="M234.764,476.435A27.2,27.2,0,0,1,222,473.252a1.873,1.873,0,1,1,1.764-3.3,23.486,23.486,0,0,0,16.334,2.131,1.873,1.873,0,0,1,.851,3.647,27.308,27.308,0,0,1-6.187.708Z" transform="translate(-134.272 -393.995)" fill="#272343"/>
    <path id="Path_1620" data-name="Path 1620" d="M112.447,334.285a1.862,1.862,0,0,1-1.287-.513,27.042,27.042,0,0,1-7.712-13.282,1.873,1.873,0,1,1,3.64-.883,23.3,23.3,0,0,0,6.647,11.446,1.873,1.873,0,0,1-1.289,3.232Z" transform="translate(-29.324 -258.766)" fill="#272343"/>
    <path id="Path_1621" data-name="Path 1621" d="M99.819,175.7a1.874,1.874,0,0,1-1.865-2.057,26.937,26.937,0,0,1,2.39-8.739,1.873,1.873,0,0,1,3.4,1.581,23.187,23.187,0,0,0-2.058,7.527,1.873,1.873,0,0,1-1.862,1.688Z" transform="translate(-24.46 -121.034)" fill="#272343"/>
    <path id="Path_1622" data-name="Path 1622" d="M172.778,91.2a1.872,1.872,0,0,1-1.446-3.06q.251-.306.509-.6A1.872,1.872,0,0,1,174.665,90c-.149.171-.295.345-.439.519a1.869,1.869,0,0,1-1.448.685Z" transform="translate(-89.565 -52.395)" fill="#272343"/>
    <path id="Path_1623" data-name="Path 1623" d="M346.157,78.868a1.872,1.872,0,0,1-.964-3.479A23.39,23.39,0,0,0,333.2,31.92a1.873,1.873,0,0,1,0-3.745A27.134,27.134,0,0,1,347.117,78.6a1.858,1.858,0,0,1-.96.267Z" transform="translate(-232.707)" fill="#272343"/>
    <line id="Line_59" data-name="Line 59" x2="20.263" transform="translate(89.666 55.472)" fill="none" stroke="#272343" stroke-linecap="round" stroke-linejoin="round" stroke-width="3"/>
    <line id="Line_60" data-name="Line 60" y2="20.263" transform="translate(99.803 45.338)" fill="none" stroke="#272343" stroke-linecap="round" stroke-linejoin="round" stroke-width="3"/>
  </g>
</svg>
