<svg xmlns="http://www.w3.org/2000/svg" width="66.806" height="66.935" viewBox="0 0 66.806 66.935">
  <path id="Icon_feather-phone" data-name="Icon feather-phone" d="M66.969,50.863v9.624A6.416,6.416,0,0,1,59.975,66.9,63.486,63.486,0,0,1,32.29,57.055,62.556,62.556,0,0,1,13.042,37.807,63.486,63.486,0,0,1,3.194,9.994,6.416,6.416,0,0,1,9.578,3H19.2a6.416,6.416,0,0,1,6.416,5.518,41.19,41.19,0,0,0,2.246,9.014A6.416,6.416,0,0,1,26.42,24.3l-4.074,4.074A51.328,51.328,0,0,0,41.593,47.623l4.074-4.074a6.416,6.416,0,0,1,6.769-1.444,41.19,41.19,0,0,0,9.014,2.246,6.416,6.416,0,0,1,5.518,6.512Z" transform="translate(-1.665 -1.5)" fill="none" stroke="#000" stroke-linecap="round" stroke-linejoin="round" stroke-width="3"/>
</svg>
