<svg xmlns="http://www.w3.org/2000/svg" width="95.379" height="24.087" viewBox="0 0 95.379 24.087">
  <path id="webflow-ar21" d="M46.676,28.278c0-1.729-1.659-3.543-4.543-3.543-3.234,0-6.785,2.381-7.329,7.134-.556,4.8,2.418,6.932,5.415,6.932a7.959,7.959,0,0,0,6.172-2.737,2.724,2.724,0,0,0-3.5-.759,3.578,3.578,0,0,1-1.853.451c-1.157,0-2.337-.521-2.337-2.689,7.411-.735,7.977-3.07,7.977-4.788ZM43,28.562c-.048.533-.259,1.445-4.012,1.956.789-2.821,2.3-3.033,3-3.033a.983.983,0,0,1,1.023,1.079Zm-12.552.463-1.723,5.439L27.512,25.02c-2.713,0-4.172,1.943-4.933,3.993l-2.1,5.463-.3-5.4a4.437,4.437,0,0,0-4.307-4.04l2.242,13.663c2.843-.011,4.378-1.943,5.181-3.993l1.777-4.645c.016.189,1.228,8.639,1.228,8.639A5.465,5.465,0,0,0,31.516,34.9l4-9.871c-2.816,0-4.3,1.932-5.066,3.993ZM57.157,24.7a5.4,5.4,0,0,0-4.237,2.369V27.06l1.014-8.212c-2.337,0-4.237,2.039-4.6,5.072L47.573,38.588A4.446,4.446,0,0,0,51.114,37.2a3.917,3.917,0,0,0,3.234,1.6c3.941,0,6.644-4.6,6.644-8.911-.024-3.935-1.924-5.178-3.824-5.178Zm-.368,7.051c-.411,2.405-1.747,4.04-3.032,4.04a2.648,2.648,0,0,1-1.853-.58,16.987,16.987,0,0,1,.873-4.515c.471-1.114,1.593-2.891,2.762-2.891,1.146,0,1.665,1.528,1.251,3.945Zm14.033-6.731h-2.75l.011-.143c.189-1.8.614-2.749,2.015-2.9a1.474,1.474,0,0,0,1.487-1.137l.343-1.908c-5.513-.036-7.257,2.356-7.7,6.008l-.011.083h-.059A2.508,2.508,0,0,0,62.1,27.332l-.059.473h1.842l-1.546,12.82-.473,2.3c.059,0,.13.011.188.011,2.583-.1,4.237-2.145,4.6-5.119L67.862,27.8h.865a2.359,2.359,0,0,0,2.015-2.275Zm14.3-.238a7.551,7.551,0,0,0-7.091,6.031c-.919,3.686.473,8.045,5.145,8.045s7.347-4.54,7.347-8.319c0-3.756-2.532-5.759-5.4-5.759Zm1.286,6.849c-.164,1.671-.9,4.207-2.9,4.207s-1.735-2.962-1.54-4.372c.213-1.5,1.051-3.649,2.856-3.649,1.624,0,1.776,1.932,1.589,3.816Zm19.8-2.619-1.723,5.439c-.046-.427-1.215-9.444-1.215-9.444-2.713,0-4.166,1.943-4.927,3.993l-2.1,5.463c-.011-.391-.3-5.4-.3-5.4a4.454,4.454,0,0,0-4.324-4.04l2.23,13.663c2.843-.011,4.378-1.943,5.181-3.993l1.771-4.645c.011.189,1.228,8.639,1.228,8.639,2.856,0,4.384-1.813,5.213-3.792l4-9.871c-2.808,0-4.3,1.932-5.051,3.993Zm-32.8-10.085L71.1,37.66l-.473,2.311c.058,0,.13.011.188.011,2.488-.036,4.259-2.227,4.591-4.988l1.333-10.747c.4-3.283-1.542-5.32-3.325-5.32Z" transform="translate(-15.875 -18.848)" opacity="0.396"/>
</svg>
