<svg xmlns="http://www.w3.org/2000/svg" width="90.938" height="90.938" viewBox="0 0 90.938 90.938">
  <g id="webflow-icon" transform="translate(0 0)">
    <ellipse id="Ellipse_9" data-name="Ellipse 9" cx="45.469" cy="45.469" rx="45.469" ry="45.469" transform="translate(0 0)" fill="#4353ff"/>
    <path id="Path_436" data-name="Path 436" d="M51.944,95.09,47.8,108.16c0-1-2.86-22.68-2.86-22.68-6.578,0-10.067,4.662-11.9,9.61l-5.062,13.1c0-.944-.715-12.984-.715-12.984a10.7,10.7,0,0,0-10.382-9.7l5.377,32.833c6.864,0,10.582-4.662,12.5-9.61l4.29-11.154c0,.458,2.86,20.764,2.86,20.764A13.213,13.213,0,0,0,54.489,109.1L64.213,85.48c-6.864,0-10.468,4.662-12.3,9.61Z" transform="translate(6.937 -54.764)" fill="#fff"/>
  </g>
</svg>
