<svg xmlns="http://www.w3.org/2000/svg" xmlns:xlink="http://www.w3.org/1999/xlink" width="54.015" height="54.015" viewBox="0 0 54.015 54.015">
  <defs>
    <clipPath id="clip-path">
      <path id="Path_124" data-name="Path 124" d="M0,0H54.015V54.015H0Z"/>
    </clipPath>
  </defs>
  <g id="Group_20" data-name="Group 20" transform="translate(0)" opacity="0.396">
    <g id="wordpress-blue" transform="translate(0 0)" clip-path="url(#clip-path)">
      <path id="Path_119" data-name="Path 119" d="M209.343,41.587h-9.371v.994c2.931,0,3.4.628,3.4,4.345v6.7c0,3.717-.47,4.4-3.4,4.4-2.25-.314-3.769-1.518-5.863-3.822L191.7,51.586c3.245-.577,4.973-2.618,4.973-4.922,0-2.879-2.46-5.078-7.067-5.078h-9.214v.994c2.931,0,3.4.628,3.4,4.345v6.7c0,3.717-.471,4.4-3.4,4.4v.995h10.418v-.995c-2.931,0-3.4-.681-3.4-4.4V51.744h.89l5.811,7.276h15.235c7.486,0,10.733-3.978,10.733-8.743s-3.246-8.691-10.733-8.691Zm-21.935,8.533V43.157h2.146a3.211,3.211,0,0,1,3.4,3.507,3.2,3.2,0,0,1-3.4,3.455ZM209.5,57.4h-.367c-1.884,0-2.146-.47-2.146-2.879V43.157H209.5c5.445,0,6.438,3.978,6.438,7.067C215.939,53.418,214.944,57.4,209.5,57.4Zm-58.268-5.34,3.612-10.681c1.047-3.089.577-3.978-2.774-3.978V36.351h9.842V37.4c-3.3,0-4.083.785-5.392,4.607L150.552,59.91h-.68l-5.341-16.387L139.087,59.91h-.681l-5.811-17.9c-1.256-3.822-2.094-4.607-5.131-4.607V36.351h11.622V37.4c-3.09,0-3.927.733-2.827,3.978l3.507,10.681,5.287-15.706h1l5.183,15.706Zm17.8,7.643c-5.758,0-10.47-4.24-10.47-9.424,0-5.131,4.712-9.371,10.47-9.371s10.47,4.241,10.47,9.371C179.5,55.46,174.79,59.7,169.031,59.7Zm0-17.171c-4.816,0-6.492,4.344-6.492,7.748,0,3.456,1.676,7.749,6.492,7.749,4.869,0,6.545-4.293,6.545-7.749C175.576,46.873,173.9,42.529,169.031,42.529Z" transform="translate(-71.271 -20.325)"/>
      <path id="Path_120" data-name="Path 120" d="M351.659,57.972v1.047H339.67V57.972c3.508,0,4.136-.89,4.136-6.126V43.471c0-5.236-.628-6.073-4.136-6.073V36.35h10.837c5.392,0,8.377,2.775,8.377,6.493,0,3.612-2.985,6.439-8.377,6.439h-2.985v2.564C347.523,57.083,348.15,57.972,351.659,57.972Zm-1.152-19.738h-2.985v9.11h2.985c2.932,0,4.293-2.042,4.293-4.5C354.8,40.33,353.439,38.235,350.507,38.235ZM394.849,54.1l-.262.942c-.47,1.728-1.047,2.356-4.764,2.356h-.733c-2.722,0-3.193-.628-3.193-4.345V50.644c4.084,0,4.4.366,4.4,3.089h.995v-7.8h-.995c0,2.722-.314,3.089-4.4,3.089V43.157h2.879c3.718,0,4.293.628,4.764,2.356l.263.995h.837l-.366-4.921H378.881v.994c2.931,0,3.4.628,3.4,4.345v6.7c0,3.4-.4,4.257-2.711,4.379-2.2-.336-3.7-1.534-5.769-3.8L371.4,51.586c3.246-.577,4.974-2.618,4.974-4.922,0-2.879-2.46-5.078-7.067-5.078h-9.214v.994c2.931,0,3.4.628,3.4,4.345v6.7c0,3.717-.471,4.4-3.4,4.4v.995h10.418v-.995c-2.931,0-3.4-.681-3.4-4.4V51.743h.891L373.8,59.02h21.516l.314-4.92h-.786ZM367.1,50.119V43.157h2.146a3.211,3.211,0,0,1,3.4,3.507,3.2,3.2,0,0,1-3.4,3.455ZM405.476,59.7a7.74,7.74,0,0,1-4.712-1.78,3.758,3.758,0,0,0-.837,1.78h-.995V52.475h1.047a5.809,5.809,0,0,0,5.916,5.5c1.675,0,3.037-.943,3.037-2.512,0-1.361-1.2-2.408-3.35-3.4L402.6,50.644c-2.094-1-3.664-2.724-3.664-5.026,0-2.513,2.356-4.659,5.6-4.659a6.556,6.556,0,0,1,4.084,1.361,2.958,2.958,0,0,0,.681-1.414h.995v6.178h-1.1c-.367-2.461-1.728-4.5-4.5-4.5-1.466,0-2.827.837-2.827,2.147,0,1.361,1.1,2.094,3.612,3.245l2.879,1.413c2.513,1.2,3.507,3.142,3.507,4.712C411.863,57.4,408.984,59.7,405.476,59.7Zm16.124,0a7.737,7.737,0,0,1-4.712-1.78,3.757,3.757,0,0,0-.837,1.78h-1V52.475H416.1a5.809,5.809,0,0,0,5.916,5.5c1.675,0,3.037-.943,3.037-2.512,0-1.361-1.2-2.408-3.351-3.4l-2.985-1.413c-2.094-1-3.664-2.724-3.664-5.026,0-2.513,2.356-4.659,5.6-4.659a6.557,6.557,0,0,1,4.084,1.361,2.953,2.953,0,0,0,.68-1.414h.995v6.178h-1.1c-.367-2.461-1.728-4.5-4.5-4.5-1.466,0-2.827.837-2.827,2.147,0,1.361,1.1,2.094,3.613,3.245l2.879,1.413c2.513,1.2,3.507,3.142,3.507,4.712C427.987,57.4,425.108,59.7,421.6,59.7Z" transform="translate(-189.924 -20.325)"/>
      <g id="Group_1" data-name="Group 1">
        <path id="Path_121" data-name="Path 121" d="M8.708,31.876A23.174,23.174,0,0,0,21.766,52.728L10.714,22.447A23.081,23.081,0,0,0,8.708,31.876Zm38.81-1.169a12.2,12.2,0,0,0-1.911-6.39c-1.174-1.908-2.275-3.525-2.275-5.433a4.012,4.012,0,0,1,3.89-4.112c.1,0,.2.013.3.019a23.164,23.164,0,0,0-35,4.361c.544.016,1.056.027,1.491.027,2.423,0,6.175-.294,6.175-.294a.957.957,0,0,1,.149,1.908s-1.256.148-2.652.221l8.437,25.1L31.189,30.9l-3.61-9.89c-1.248-.073-2.43-.221-2.43-.221a.957.957,0,0,1,.146-1.908s3.826.294,6.1.294c2.423,0,6.175-.294,6.175-.294a.957.957,0,0,1,.149,1.908s-1.258.148-2.652.221l8.373,24.906L45.753,38.2c1-3.2,1.764-5.506,1.764-7.49Z" transform="translate(-4.869 -4.869)"/>
        <path id="Path_122" data-name="Path 122" d="M53.367,49.188l-6.951,20.2a23.175,23.175,0,0,0,14.239-.369,1.963,1.963,0,0,1-.165-.319ZM73.291,36.046a17.785,17.785,0,0,1,.156,2.382,21.855,21.855,0,0,1-1.762,8.3L64.608,67.189a23.173,23.173,0,0,0,8.683-31.143Z" transform="translate(-25.953 -20.155)"/>
        <path id="Path_123" data-name="Path 123" d="M27.008,0A27.008,27.008,0,1,0,54.017,27.007,27.038,27.038,0,0,0,27.008,0Zm0,52.777a25.769,25.769,0,1,1,25.768-25.77A25.8,25.8,0,0,1,27.008,52.777Z"/>
      </g>
    </g>
  </g>
</svg>
