<svg xmlns="http://www.w3.org/2000/svg" width="90.911" height="90.908" viewBox="0 0 90.911 90.908">
  <g id="Wordpress-Logo" transform="translate(0 0)">
    <path id="Path_431" data-name="Path 431" d="M8.708,55.741A39,39,0,0,0,30.684,90.835l-18.6-50.963A38.845,38.845,0,0,0,8.708,55.741Z" transform="translate(-2.247 -10.288)" fill="#464342"/>
    <path id="Path_432" data-name="Path 432" d="M76.256,45.732A20.53,20.53,0,0,0,73.04,34.978c-1.977-3.212-3.829-5.932-3.829-9.144a6.752,6.752,0,0,1,6.548-6.921c.173,0,.337.022.505.031a38.985,38.985,0,0,0-58.912,7.34c.915.027,1.777.047,2.509.047,4.079,0,10.392-.495,10.392-.495a1.611,1.611,0,0,1,.25,3.212s-2.112.249-4.463.372l14.2,42.237,8.533-25.593L42.7,29.418c-2.1-.123-4.089-.372-4.089-.372-2.1-.123-1.855-3.336.246-3.212,0,0,6.44.495,10.271.495,4.078,0,10.392-.495,10.392-.495a1.611,1.611,0,0,1,.25,3.212s-2.117.249-4.463.372L69.4,71.335l3.889-13c1.686-5.393,2.969-9.267,2.969-12.605Z" transform="translate(-4.477 -2.247)" fill="#464342"/>
    <path id="Path_433" data-name="Path 433" d="M58.115,65.857l-11.7,34a39.012,39.012,0,0,0,23.964-.622,3.425,3.425,0,0,1-.277-.537Z" transform="translate(-11.977 -16.993)" fill="#464342"/>
    <path id="Path_434" data-name="Path 434" d="M102.294,36.046a29.919,29.919,0,0,1,.263,4.01,36.783,36.783,0,0,1-2.965,13.967L87.681,88.46a39,39,0,0,0,14.613-52.414Z" transform="translate(-22.624 -9.301)" fill="#464342"/>
    <path id="Path_435" data-name="Path 435" d="M45.455,0A45.454,45.454,0,1,0,90.911,45.453,45.506,45.506,0,0,0,45.455,0Zm0,88.825A43.37,43.37,0,1,1,88.823,45.453,43.421,43.421,0,0,1,45.455,88.825Z" transform="translate(0 0)" fill="#464342"/>
  </g>
</svg>
